<svg width="66" height="66" viewBox="0 0 66 66" fill="none" xmlns="http://www.w3.org/2000/svg">
    <circle cx="33" cy="33" r="32" fill="#F9F8F8" stroke="#365FA7" stroke-width="1.5"/>
    <path d="M35.3354 31.204C37.6634 31.492 39.4394 32.284 40.6634 33.58C41.8874 34.876 42.4994 36.496 42.4994 38.44C42.4994 39.904 42.1274 41.236 41.3834 42.436C40.6394 43.636 39.5114 44.596 37.9994 45.316C36.5114 46.012 34.6874 46.36 32.5274 46.36C30.7274 46.36 28.9874 46.108 27.3074 45.604C25.6514 45.076 24.2354 44.356 23.0594 43.444L25.0754 39.808C25.9874 40.576 27.0914 41.188 28.3874 41.644C29.7074 42.076 31.0634 42.292 32.4554 42.292C34.1114 42.292 35.4074 41.956 36.3434 41.284C37.3034 40.588 37.7834 39.652 37.7834 38.476C37.7834 37.3 37.3274 36.388 36.4154 35.74C35.5274 35.068 34.1594 34.732 32.3114 34.732H30.0074V31.528L35.7314 24.724H24.2834V20.8H41.4554V23.932L35.3354 31.204Z" fill="#E9615B"/>
</svg>
