<svg width="66" height="66" viewBox="0 0 66 66" fill="none" xmlns="http://www.w3.org/2000/svg">
    <circle cx="33" cy="33" r="32" fill="#F9F8F8" stroke="#365FA7" stroke-width="1.5"/>
    <path d="M42.8594 42.04V46H24.2834V42.868L34.2914 33.364C35.4194 32.284 36.1754 31.348 36.5594 30.556C36.9674 29.74 37.1714 28.936 37.1714 28.144C37.1714 26.968 36.7754 26.068 35.9834 25.444C35.1914 24.82 34.0274 24.508 32.4914 24.508C29.9234 24.508 27.9554 25.384 26.5874 27.136L23.3114 24.616C24.2954 23.296 25.6154 22.276 27.2714 21.556C28.9514 20.812 30.8234 20.44 32.8874 20.44C35.6234 20.44 37.8074 21.088 39.4394 22.384C41.0714 23.68 41.8874 25.444 41.8874 27.676C41.8874 29.044 41.5994 30.328 41.0234 31.528C40.4474 32.728 39.3434 34.096 37.7114 35.632L30.9794 42.04H42.8594Z" fill="#E9615B"/>
</svg>
