<svg width="135" height="130" viewBox="0 0 135 130" fill="none" xmlns="http://www.w3.org/2000/svg">
    <path d="M21.3007 120.508C16.2924 120.508 10.9355 115.788 10.9355 105.455V18.1679C10.9439 17.6406 11.1579 17.1377 11.5315 16.7678C11.9051 16.3979 12.4083 16.1906 12.9325 16.1907H29.6371C30.1613 16.1906 30.6645 16.3979 31.0381 16.7678C31.4117 17.1377 31.6257 17.6406 31.6341 18.1679V105.455C31.6975 115.788 26.2772 120.508 21.3007 120.508ZM14.9611 20.1771V105.455C14.9611 119.966 27.6402 119.966 27.6402 105.455V20.1771H14.9611Z" fill="#E9615B"/>
    <path d="M2.06034 66.514C1.79546 66.5225 1.53155 66.4779 1.28399 66.3827C1.03642 66.2875 0.810165 66.1437 0.618397 65.9597C0.426629 65.7757 0.273188 65.5551 0.167018 65.3108C0.0608478 65.0665 0.00407203 64.8033 0 64.5367L0 31.9436C0.00552613 31.4103 0.209039 30.8984 0.570557 30.5085C0.758871 30.3228 0.981872 30.1764 1.22669 30.0779C1.47151 29.9794 1.7333 29.9306 1.99695 29.9344H29.7323C30.0135 29.8985 30.2991 29.9233 30.57 30.0071C30.841 30.0909 31.0911 30.2317 31.3037 30.4203C31.5164 30.6088 31.6867 30.8407 31.8034 31.1006C31.92 31.3605 31.9804 31.6424 31.9804 31.9276C31.9804 32.2128 31.92 32.4947 31.8034 32.7546C31.6867 33.0145 31.5164 33.2464 31.3037 33.435C31.0911 33.6235 30.841 33.7644 30.57 33.8482C30.2991 33.9319 30.0135 33.9567 29.7323 33.9208H3.9939V64.5367C3.9939 65.0611 3.78684 65.5641 3.41829 65.9349C3.04973 66.3057 2.54986 66.514 2.02865 66.514H2.06034Z" fill="#E9615B"/>
    <path d="M21.5534 129.916C21.0453 129.908 20.5592 129.706 20.1941 129.35C19.829 128.995 19.6123 128.513 19.5881 128.002V118.435C19.5525 118.152 19.5771 117.864 19.6604 117.592C19.7436 117.319 19.8836 117.068 20.071 116.854C20.2584 116.64 20.4889 116.468 20.7473 116.351C21.0056 116.234 21.2858 116.173 21.5692 116.173C21.8527 116.173 22.1329 116.234 22.3912 116.351C22.6495 116.468 22.88 116.64 23.0674 116.854C23.2548 117.068 23.3948 117.319 23.4781 117.592C23.5613 117.864 23.586 118.152 23.5503 118.435V128.002C23.5259 128.518 23.3047 129.005 22.9328 129.361C22.561 129.718 22.0669 129.916 21.5534 129.916Z" fill="#E9615B"/>
    <path d="M128.31 129.917H50.9047C49.1637 129.86 47.5122 129.127 46.2953 127.873C45.0785 126.619 44.3904 124.941 44.375 123.188V33.1263C44.4361 32.6411 44.6711 32.195 45.0358 31.8716C45.4005 31.5482 45.87 31.3698 46.3561 31.3698C46.8422 31.3698 47.3117 31.5482 47.6764 31.8716C48.0411 32.195 48.2761 32.6411 48.3372 33.1263V123.188C48.3609 123.899 48.6524 124.575 49.1526 125.078C49.6528 125.582 50.3245 125.875 51.0315 125.899H128.31C129.022 125.891 129.703 125.602 130.206 125.096C130.71 124.589 130.996 123.904 131.004 123.188V7.16662C131.004 6.44767 130.721 5.75817 130.215 5.2498C129.71 4.74143 129.025 4.45583 128.31 4.45583H76.7382C76.2086 4.45583 75.7007 4.24415 75.3262 3.86736C74.9517 3.49057 74.7413 2.97953 74.7413 2.44667C74.7413 1.9138 74.9517 1.40276 75.3262 1.02597C75.7007 0.64918 76.2086 0.4375 76.7382 0.4375L128.31 0.4375C130.084 0.4375 131.785 1.14646 133.039 2.40841C134.294 3.67037 134.998 5.38194 134.998 7.16662V123.188C134.99 124.97 134.283 126.677 133.03 127.937C131.778 129.197 130.081 129.909 128.31 129.917Z" fill="#365DA7"/>
    <path d="M72.0798 35.1353H46.2463C45.8501 35.1425 45.4612 35.027 45.1324 34.8046C44.8036 34.5821 44.5506 34.2634 44.4078 33.8915C44.2543 33.5298 44.2116 33.1303 44.285 32.7439C44.3584 32.3576 44.5446 32.0021 44.8199 31.7229L75.3446 1.01134C75.6222 0.73439 75.9755 0.547013 76.3595 0.473161C76.7434 0.39931 77.1406 0.442339 77.5001 0.596749C77.8697 0.740469 78.1865 0.994971 78.4076 1.32581C78.6287 1.65665 78.7434 2.04785 78.7363 2.44646V28.4381C78.7363 30.2143 78.035 31.9177 76.7866 33.1737C75.5383 34.4297 73.8452 35.1353 72.0798 35.1353ZM51.0326 31.1488H72.0798C72.7888 31.1405 73.466 30.8512 73.9645 30.3437C74.4629 29.8362 74.7424 29.1515 74.7424 28.4381V7.26208L51.0326 31.1488Z" fill="#365DA7"/>
    <path d="M114.269 29.6822H89.6083C89.0787 29.6822 88.5707 29.4705 88.1962 29.0937C87.8217 28.7169 87.6113 28.2058 87.6113 27.673C87.6113 27.1401 87.8217 26.6291 88.1962 26.2523C88.5707 25.8755 89.0787 25.6638 89.6083 25.6638H114.269C114.799 25.6638 115.307 25.8755 115.681 26.2523C116.056 26.6291 116.266 27.1401 116.266 27.673C116.266 28.2058 116.056 28.7169 115.681 29.0937C115.307 29.4705 114.799 29.6822 114.269 29.6822Z" fill="#365DA7"/>
    <path d="M114.269 53.1552H64.9473C64.6661 53.1911 64.3805 53.1663 64.1096 53.0825C63.8386 52.9988 63.5885 52.8579 63.3759 52.6694C63.1632 52.4808 62.9929 52.2489 62.8762 51.989C62.7596 51.7291 62.6992 51.4472 62.6992 51.162C62.6992 50.8768 62.7596 50.5949 62.8762 50.335C62.9929 50.0751 63.1632 49.8432 63.3759 49.6546C63.5885 49.4661 63.8386 49.3252 64.1096 49.2415C64.3805 49.1577 64.6661 49.1329 64.9473 49.1688H114.269C114.55 49.1329 114.835 49.1577 115.106 49.2415C115.377 49.3252 115.627 49.4661 115.84 49.6546C116.053 49.8432 116.223 50.0751 116.34 50.335C116.456 50.5949 116.517 50.8768 116.517 51.162C116.517 51.4472 116.456 51.7291 116.34 51.989C116.223 52.2489 116.053 52.4808 115.84 52.6694C115.627 52.8579 115.377 52.9988 115.106 53.0825C114.835 53.1663 114.55 53.1911 114.269 53.1552Z" fill="#365DA7"/>
    <path d="M114.269 66.8679H64.9473C64.6661 66.9037 64.3805 66.8789 64.1096 66.7952C63.8386 66.7114 63.5885 66.5706 63.3759 66.382C63.1632 66.1935 62.9929 65.9615 62.8762 65.7016C62.7596 65.4417 62.6992 65.1598 62.6992 64.8746C62.6992 64.5895 62.7596 64.3076 62.8762 64.0477C62.9929 63.7878 63.1632 63.5558 63.3759 63.3673C63.5885 63.1787 63.8386 63.0379 64.1096 62.9541C64.3805 62.8703 64.6661 62.8456 64.9473 62.8814H114.269C114.55 62.8456 114.835 62.8703 115.106 62.9541C115.377 63.0379 115.627 63.1787 115.84 63.3673C116.053 63.5558 116.223 63.7878 116.34 64.0477C116.456 64.3076 116.517 64.5895 116.517 64.8746C116.517 65.1598 116.456 65.4417 116.34 65.7016C116.223 65.9615 116.053 66.1935 115.84 66.382C115.627 66.5706 115.377 66.7114 115.106 66.7952C114.835 66.8789 114.55 66.9037 114.269 66.8679Z" fill="#365DA7"/>
    <path d="M114.269 80.5807H64.9473C64.6661 80.6166 64.3805 80.5918 64.1096 80.5081C63.8386 80.4243 63.5885 80.2834 63.3759 80.0949C63.1632 79.9064 62.9929 79.6744 62.8762 79.4145C62.7596 79.1546 62.6992 78.8727 62.6992 78.5875C62.6992 78.3024 62.7596 78.0204 62.8762 77.7605C62.9929 77.5006 63.1632 77.2687 63.3759 77.0802C63.5885 76.8916 63.8386 76.7508 64.1096 76.667C64.3805 76.5832 64.6661 76.5585 64.9473 76.5943H114.269C114.55 76.5585 114.835 76.5832 115.106 76.667C115.377 76.7508 115.627 76.8916 115.84 77.0802C116.053 77.2687 116.223 77.5006 116.34 77.7605C116.456 78.0204 116.517 78.3024 116.517 78.5875C116.517 78.8727 116.456 79.1546 116.34 79.4145C116.223 79.6744 116.053 79.9064 115.84 80.0949C115.627 80.2834 115.377 80.4243 115.106 80.5081C114.835 80.5918 114.55 80.6166 114.269 80.5807Z" fill="#365DA7"/>
    <path d="M114.268 94.2934H89.6072C89.1249 94.2319 88.6815 93.9955 88.3601 93.6286C88.0387 93.2616 87.8613 92.7893 87.8613 92.3002C87.8613 91.8111 88.0387 91.3388 88.3601 90.9718C88.6815 90.6049 89.1249 90.3685 89.6072 90.307H114.268C114.549 90.2711 114.835 90.2959 115.106 90.3797C115.377 90.4634 115.627 90.6043 115.839 90.7928C116.052 90.9814 116.222 91.2133 116.339 91.4732C116.456 91.7331 116.516 92.015 116.516 92.3002C116.516 92.5854 116.456 92.8673 116.339 93.1272C116.222 93.3871 116.052 93.619 115.839 93.8076C115.627 93.9961 115.377 94.1369 115.106 94.2207C114.835 94.3045 114.549 94.3293 114.268 94.2934Z" fill="#365DA7"/>
</svg>
