<svg width="133" height="134" viewBox="0 0 133 134" fill="none" xmlns="http://www.w3.org/2000/svg">
    <path d="M66.4994 21.7544C72.3181 21.7544 77.1394 17.0994 77.1394 11.2806C77.1394 5.46188 72.3181 0.640625 66.4994 0.640625C60.6806 0.640625 55.8594 5.29563 55.8594 11.1144C55.8594 16.9331 60.6806 21.7544 66.4994 21.7544ZM66.4994 3.96563C70.4894 3.96563 73.8144 7.12438 73.8144 11.1144C73.8144 15.1044 70.4894 18.2631 66.4994 18.2631C62.5094 18.2631 59.1844 15.1044 59.1844 11.1144C59.1844 7.12438 62.5094 3.96563 66.4994 3.96563Z" fill="#365DA7"/>
    <path d="M106.068 38.0473C108.894 38.0473 111.554 36.8836 113.549 35.0548C115.544 33.0598 116.708 30.3998 116.708 27.5736C116.708 24.7473 115.544 22.0873 113.549 20.0923C111.554 18.0973 108.894 16.9336 106.068 16.9336C103.241 16.9336 100.581 18.0973 98.5863 20.0923C96.5913 22.0873 95.4276 24.7473 95.5938 27.5736C95.5938 30.3998 96.7576 33.0598 98.7526 35.0548C100.581 37.0498 103.241 38.0473 106.068 38.0473ZM100.914 22.4198C102.244 21.0898 104.073 20.2586 106.068 20.2586C108.063 20.2586 109.891 21.0898 111.221 22.4198C112.551 23.7498 113.383 25.5786 113.383 27.5736C113.383 29.5686 112.718 31.3973 111.221 32.7273C109.891 34.0573 108.063 34.8886 106.068 34.8886C104.073 34.8886 102.244 34.0573 100.914 32.7273C99.5838 31.3973 98.7526 29.5686 98.7526 27.5736C98.7526 25.5786 99.5838 23.7498 100.914 22.4198Z" fill="#365DA7"/>
    <path d="M122.526 56.5017C116.708 56.5017 112.053 61.323 112.053 67.1417C112.053 72.9605 116.708 77.7817 122.526 77.7817C128.345 77.7817 133 72.9605 133 67.1417C133 61.323 128.345 56.5017 122.526 56.5017ZM122.526 74.4567C118.536 74.4567 115.378 71.1317 115.378 67.1417C115.378 63.1517 118.536 59.8267 122.526 59.8267C126.516 59.8267 129.675 63.1517 129.675 67.1417C129.675 71.1317 126.516 74.4567 122.526 74.4567Z" fill="#365DA7"/>
    <path d="M106.068 117.349C108.894 117.349 111.554 116.185 113.549 114.19C115.544 112.195 116.708 109.535 116.708 106.709C116.708 103.883 115.544 101.223 113.549 99.2279C111.554 97.2329 108.894 96.0692 106.068 96.2354C103.241 96.2354 100.581 97.3992 98.5865 99.3942C96.5915 101.389 95.4277 104.049 95.4277 106.875C95.4277 109.702 96.5915 112.362 98.4202 114.357C100.581 116.185 103.241 117.349 106.068 117.349ZM100.914 101.555C102.244 100.225 104.073 99.3942 106.068 99.3942C108.063 99.3942 109.725 100.059 111.221 101.555C112.551 102.885 113.383 104.714 113.383 106.709C113.383 108.704 112.551 110.533 111.221 111.863C109.891 113.193 108.063 114.024 106.068 114.024C104.073 114.024 102.41 113.359 100.914 111.863C99.584 110.533 98.7527 108.704 98.7527 106.709C98.919 104.88 99.584 103.052 100.914 101.555Z" fill="#365DA7"/>
    <path d="M55.8594 123.166C55.8594 128.985 60.6806 133.64 66.4994 133.64C72.3181 133.64 77.1394 128.985 77.1394 123.166C77.1394 117.347 72.3181 112.692 66.4994 112.692C60.6806 112.692 55.8594 117.347 55.8594 123.166ZM73.8144 123.166C73.8144 127.156 70.4894 130.315 66.4994 130.315C62.5094 130.315 59.1844 127.156 59.1844 123.166C59.1844 119.176 62.5094 116.017 66.4994 116.017C70.4894 116.017 73.8144 119.176 73.8144 123.166Z" fill="#365DA7"/>
    <path d="M26.9313 117.347C29.7575 117.347 32.4175 116.183 34.4125 114.188C36.4075 112.193 37.5713 109.533 37.405 106.707C37.405 103.881 36.2413 101.221 34.2463 99.2259C32.2513 97.2309 29.5913 96.0671 26.765 96.0671C23.9388 96.0671 21.2788 97.2309 19.2838 99.0596C17.2888 101.055 16.125 103.715 16.125 106.541C16.125 109.367 17.2888 112.027 19.2838 114.022C21.2788 116.017 24.105 117.347 26.9313 117.347ZM21.7775 101.553C23.1075 100.223 24.9363 99.3921 26.9313 99.3921C28.9263 99.3921 30.755 100.223 32.085 101.553C33.415 102.883 34.2463 104.712 34.2463 106.707C34.2463 108.702 33.5812 110.531 32.085 111.861C30.755 113.191 28.9263 114.022 26.9313 114.022C24.9363 114.022 23.1075 113.191 21.7775 111.861C20.4475 110.531 19.6163 108.702 19.6163 106.707C19.6163 104.712 20.4475 102.883 21.7775 101.553Z" fill="#365DA7"/>
    <path d="M10.4738 77.7817C16.2925 77.7817 20.9475 72.9605 20.9475 67.1417C20.9475 61.323 16.2925 56.5017 10.4738 56.5017C4.655 56.5017 0 61.323 0 67.1417C0 72.9605 4.655 77.7817 10.4738 77.7817ZM10.4738 59.8267C14.4638 59.8267 17.6225 63.1517 17.6225 67.1417C17.6225 71.1317 14.4638 74.4567 10.4738 74.4567C6.48375 74.4567 3.325 71.1317 3.325 67.1417C3.325 63.1517 6.48375 59.8267 10.4738 59.8267Z" fill="#365DA7"/>
    <path d="M26.9327 38.0464C29.759 38.0464 32.419 36.8826 34.414 34.8876C36.409 32.8926 37.5727 30.2326 37.5727 27.4064C37.5727 24.5801 36.409 21.9201 34.5802 19.9251C32.5852 17.9301 29.9252 16.7664 27.099 16.7664C24.2727 16.7664 21.6127 17.9301 19.6177 19.9251C17.6227 21.9201 16.459 24.5801 16.459 27.4064C16.459 30.2326 17.6227 32.8926 19.6177 34.8876C21.4465 37.0489 24.1065 38.0464 26.9327 38.0464ZM21.779 22.4189C23.109 21.0889 24.9377 20.2576 26.9327 20.2576C28.9277 20.2576 30.5902 20.9226 32.0865 22.4189C33.4165 23.7489 34.2477 25.5776 34.2477 27.5726C34.2477 29.5676 33.4165 31.3964 32.0865 32.7264C30.7565 34.0564 28.9277 34.8876 26.9327 34.8876C24.9377 34.8876 23.2752 34.2226 21.779 32.7264C20.449 31.3964 19.6177 29.5676 19.6177 27.5726C19.6177 25.7439 20.449 23.9151 21.779 22.4189Z" fill="#365DA7"/>
    <path d="M39.2343 19.9259C39.5668 19.9259 39.733 19.9259 40.0655 19.7597C43.5568 17.7647 47.2143 16.2684 51.038 15.1047C51.8693 14.7722 52.368 13.9409 52.2018 13.1097C51.8693 12.2784 51.038 11.7797 50.2068 11.9459C46.2168 13.1097 42.2268 14.7722 38.5693 16.7672C37.738 17.2659 37.4055 18.2634 37.9043 19.0947C38.0705 19.5934 38.7355 19.9259 39.2343 19.9259Z" fill="#365DA7"/>
    <path d="M81.2967 14.7726C85.1204 15.7701 88.7779 17.4326 92.2692 19.2614C92.6017 19.4276 92.7679 19.4276 93.1004 19.4276C93.7654 19.4276 94.2642 19.0951 94.5967 18.5964C95.0954 17.7651 94.7629 16.7676 93.9317 16.2689C90.2742 14.2739 86.2842 12.6114 82.2942 11.6139C81.4629 11.4476 80.4654 11.9464 80.2992 12.7776C79.8004 13.6089 80.2992 14.6064 81.2967 14.7726Z" fill="#365DA7"/>
    <path d="M114.38 38.214C113.549 38.7127 113.216 39.7102 113.715 40.5415C115.71 44.0327 117.206 47.6902 118.37 51.514C118.536 52.179 119.201 52.6777 120.032 52.6777C120.199 52.6777 120.365 52.6777 120.531 52.6777C121.362 52.3452 121.861 51.514 121.695 50.6827C120.531 46.6927 118.869 42.7027 116.874 39.0452C116.209 38.0477 115.211 37.8815 114.38 38.214Z" fill="#365DA7"/>
    <path d="M115.543 95.0702C116.208 95.0702 116.707 94.7377 117.039 94.239C119.034 90.5815 120.697 86.5915 121.694 82.6015C122.027 81.7702 121.362 80.7727 120.531 80.6065C119.699 80.274 118.702 80.939 118.536 81.7702C117.538 85.594 115.876 89.2515 114.047 92.7427C113.548 93.574 113.881 94.5715 114.712 95.0702C115.044 95.0702 115.377 95.0702 115.543 95.0702Z" fill="#365DA7"/>
    <path d="M92.9337 114.19C89.4425 116.185 85.785 117.681 81.9612 118.845C81.13 119.178 80.6312 120.009 80.7975 120.84C80.9637 121.505 81.6287 122.004 82.46 122.004C82.6262 122.004 82.7925 122.004 82.9587 122.004C86.9487 120.84 90.9387 119.178 94.5962 117.183C95.4275 116.684 95.76 115.686 95.2612 114.855C94.7625 114.024 93.765 113.691 92.9337 114.19Z" fill="#365DA7"/>
    <path d="M40.7318 114.522C39.9005 114.023 38.903 114.356 38.4043 115.187C37.9055 116.018 38.238 117.016 39.0693 117.515C42.7268 119.51 46.7168 121.172 50.7068 122.17C50.873 122.17 51.0393 122.17 51.2055 122.17C51.8705 122.17 52.5355 121.671 52.868 121.006C53.2005 120.175 52.5355 119.177 51.7043 119.011C48.0468 118.013 44.223 116.517 40.7318 114.522Z" fill="#365DA7"/>
    <path d="M18.6201 95.5681C19.4513 95.0694 19.7838 94.0719 19.2851 93.2406C17.2901 89.7494 15.7938 86.0919 14.6301 82.2681C14.2976 81.4369 13.4663 80.9381 12.6351 81.1044C11.8038 81.4369 11.3051 82.2681 11.4713 83.0994C12.6351 87.0894 14.2976 91.0794 16.2926 94.7369C16.6251 95.2356 17.1238 95.5681 17.7888 95.5681C18.1213 95.9006 18.2876 95.7344 18.6201 95.5681Z" fill="#365DA7"/>
    <path d="M12.3028 53.341C12.4691 53.341 12.6353 53.341 12.8016 53.341C13.4666 53.341 14.1316 52.8422 14.4641 52.1772C15.4616 48.3535 17.1241 44.696 18.9528 41.2047C19.4516 40.3735 19.1191 39.376 18.2878 38.8772C17.4566 38.3785 16.4591 38.8772 15.9603 39.7085C13.9653 43.366 12.3028 47.356 11.3053 51.346C10.9728 52.1772 11.4716 53.1747 12.3028 53.341Z" fill="#365DA7"/>
    <path d="M88.2794 91.7447V60.1572L91.2719 62.6509C91.6044 62.9834 91.9368 62.9834 92.4356 62.9834C92.9343 62.9834 93.4331 62.8172 93.7656 62.4847C94.4306 61.8197 94.2643 60.8222 93.5993 60.1572L67.6644 38.0459C66.9994 37.5472 66.1681 37.5472 65.5031 38.0459L39.5681 60.1572C38.9031 60.8222 38.7369 61.8197 39.4019 62.4847C40.0669 63.1497 41.0644 63.3159 41.7294 62.6509L44.7219 60.1572V91.5784C44.7219 92.5759 45.3869 93.2409 46.3844 93.2409H86.6168C87.4481 93.4072 88.2794 92.5759 88.2794 91.7447ZM48.0469 90.0822V57.3309L66.5006 41.3709L84.9543 57.3309V90.0822H48.0469Z" fill="#E9615B"/>
</svg>
