<svg width="59" height="60" viewBox="0 0 59 60" fill="none" xmlns="http://www.w3.org/2000/svg">
    <circle cx="29.5" cy="30.1406" r="28.75" fill="#F9F8F8" stroke="#365DA7" stroke-width="1.5"/>
    <path d="M20.084 19.724H38.5007C39.6278 19.724 40.7088 20.1718 41.5059 20.9688C42.3029 21.7658 42.7507 22.8468 42.7507 23.974V36.724C42.7507 37.8512 42.3029 38.9322 41.5059 39.7292C40.7088 40.5262 39.6278 40.974 38.5007 40.974H20.084C18.9568 40.974 17.8758 40.5262 17.0788 39.7292C16.2818 38.9322 15.834 37.8512 15.834 36.724V23.974C15.834 22.8468 16.2818 21.7658 17.0788 20.9688C17.8758 20.1718 18.9568 19.724 20.084 19.724ZM20.084 21.1407C19.3927 21.1407 18.758 21.3886 18.2664 21.8008L29.2923 28.9607L40.3182 21.8008C39.809 21.3736 39.1654 21.1398 38.5007 21.1407H20.084ZM29.2923 30.6493L17.4405 22.954C17.3148 23.2794 17.2504 23.6252 17.2507 23.974V36.724C17.2507 37.4754 17.5492 38.1961 18.0805 38.7275C18.6119 39.2588 19.3325 39.5573 20.084 39.5573H38.5007C39.2521 39.5573 39.9728 39.2588 40.5041 38.7275C41.0355 38.1961 41.334 37.4754 41.334 36.724V23.974C41.334 23.6142 41.2674 23.2699 41.1441 22.954L29.2923 30.6479V30.6493Z" fill="#E9615B"/>
</svg>
