<svg width="778" height="408" viewBox="0 0 778 408" fill="none" xmlns="http://www.w3.org/2000/svg">
<g clip-path="url(#clip0)">
<path d="M758.65 324.208H722.938V370H686.65V324.208H576.058V298.288L675.418 168.4H715.45L621.85 292.528H687.802V251.92H722.938V292.528H758.65V324.208Z" fill="#365FA7"/>
<path d="M208.65 316.208H172.938V362H136.65V316.208H26.0576V290.288L125.418 160.4H165.45L71.8496 284.528H137.802V243.92H172.938V284.528H208.65V316.208Z" fill="#365FA7"/>
<path d="M541.312 233.616C540.034 231.716 538.341 230.132 536.36 228.981C534.38 227.831 532.165 227.145 529.881 226.975V178.473C529.881 167.798 525.641 157.561 518.092 150.012C510.544 142.464 500.306 138.223 489.631 138.223H288.381C277.706 138.223 267.469 142.464 259.92 150.012C252.372 157.561 248.131 167.798 248.131 178.473V226.975C245.848 227.145 243.632 227.831 241.652 228.981C239.672 230.132 237.979 231.716 236.7 233.616C219.634 258.531 254.652 350.623 258.717 361.047C259.009 361.804 259.523 362.455 260.191 362.914C260.858 363.374 261.65 363.621 262.46 363.623H268.256V383.748C268.256 384.816 268.68 385.84 269.435 386.595C270.19 387.349 271.214 387.773 272.281 387.773H296.431C297.499 387.773 298.523 387.349 299.278 386.595C300.032 385.84 300.456 384.816 300.456 383.748V363.623H469.506V383.748C469.506 384.816 469.93 385.84 470.685 386.595C471.44 387.349 472.464 387.773 473.531 387.773H497.681C498.749 387.773 499.773 387.349 500.528 386.595C501.282 385.84 501.706 384.816 501.706 383.748V363.623H515.512C516.323 363.621 517.114 363.374 517.782 362.914C518.45 362.455 518.964 361.804 519.255 361.047C523.361 350.623 558.378 258.531 541.312 233.616ZM256.181 178.473C256.181 169.933 259.574 161.743 265.613 155.705C271.651 149.666 279.841 146.273 288.381 146.273H489.631C498.171 146.273 506.362 149.666 512.4 155.705C518.439 161.743 521.831 169.933 521.831 178.473V227.216C513.061 228.222 504.946 232.351 498.969 238.848C483.352 255.874 482.869 285.659 483.111 296.849H294.902C295.264 285.659 294.66 255.874 279.043 238.848C273.067 232.351 264.952 228.222 256.181 227.216V178.473ZM292.406 379.723H276.306V363.623H292.406V379.723ZM493.656 379.723H477.556V363.623H493.656V379.723ZM512.735 355.573H265.238C254.209 326.513 231.267 255.753 243.342 238.164C244.043 237.069 245.026 236.181 246.187 235.594C247.347 235.006 248.644 234.74 249.943 234.823C254.269 234.635 258.585 235.399 262.584 237.061C266.583 238.724 270.168 241.243 273.086 244.443C289.75 262.636 286.651 300.31 286.61 300.793C286.564 301.348 286.633 301.906 286.813 302.432C286.993 302.959 287.281 303.442 287.657 303.852C288.037 304.262 288.498 304.588 289.011 304.81C289.523 305.031 290.077 305.144 290.635 305.14H487.377C487.936 305.144 488.489 305.031 489.002 304.81C489.515 304.588 489.976 304.262 490.356 303.852C490.732 303.442 491.02 302.959 491.2 302.432C491.38 301.906 491.449 301.348 491.402 300.793C491.402 300.391 488.263 262.717 504.926 244.443C507.845 241.243 511.43 238.724 515.429 237.061C519.428 235.399 523.744 234.635 528.07 234.823C529.369 234.74 530.665 235.006 531.826 235.594C532.987 236.181 533.969 237.069 534.671 238.164C546.746 255.753 523.804 326.513 512.775 355.573H512.735Z" fill="#E9615B"/>
<path d="M388.877 281.88C372.749 281.88 358.349 277.848 345.677 269.784C333.005 261.528 323.021 249.624 315.725 234.072C308.429 218.328 304.781 199.704 304.781 178.2C304.781 156.696 308.429 138.168 315.725 122.616C323.021 106.872 333.005 94.968 345.677 86.904C358.349 78.648 372.749 74.52 388.877 74.52C405.005 74.52 419.405 78.648 432.077 86.904C444.941 94.968 455.021 106.872 462.317 122.616C469.613 138.168 473.261 156.696 473.261 178.2C473.261 199.704 469.613 218.328 462.317 234.072C455.021 249.624 444.941 261.528 432.077 269.784C419.405 277.848 405.005 281.88 388.877 281.88ZM388.877 249.336C403.277 249.336 414.605 243.384 422.861 231.48C431.309 219.576 435.533 201.816 435.533 178.2C435.533 154.584 431.309 136.824 422.861 124.92C414.605 113.016 403.277 107.064 388.877 107.064C374.669 107.064 363.341 113.016 354.893 124.92C346.637 136.824 342.509 154.584 342.509 178.2C342.509 201.816 346.637 219.576 354.893 231.48C363.341 243.384 374.669 249.336 388.877 249.336Z" fill="#365FA7"/>
</g>
<defs>
<clipPath id="clip0">
<rect width="778" height="408" fill="white"/>
</clipPath>
</defs>
</svg>
