<svg width="59" height="59" viewBox="0 0 59 59" fill="none" xmlns="http://www.w3.org/2000/svg">
    <circle cx="29.5" cy="29.5" r="28.75" fill="#F9F8F8" stroke="#365DA7" stroke-width="1.5"/>
    <path d="M30 23.5C28.9122 23.5 27.8488 23.8226 26.9444 24.4269C26.0399 25.0313 25.3349 25.8902 24.9187 26.8952C24.5024 27.9002 24.3935 29.0061 24.6057 30.073C24.8179 31.1399 25.3417 32.1199 26.1109 32.8891C26.8801 33.6583 27.8601 34.1821 28.927 34.3943C29.9939 34.6065 31.0998 34.4976 32.1048 34.0813C33.1098 33.6651 33.9687 32.9601 34.5731 32.0556C35.1774 31.1512 35.5 30.0878 35.5 29C35.4983 27.5418 34.9184 26.1438 33.8873 25.1127C32.8562 24.0816 31.4582 23.5017 30 23.5ZM30 33.5C29.11 33.5 28.24 33.2361 27.4999 32.7416C26.7599 32.2471 26.1831 31.5443 25.8425 30.7221C25.5019 29.8998 25.4128 28.995 25.5865 28.1221C25.7601 27.2492 26.1887 26.4474 26.818 25.818C27.4474 25.1887 28.2492 24.7601 29.1221 24.5865C29.995 24.4128 30.8998 24.5019 31.7221 24.8425C32.5443 25.1831 33.2471 25.7599 33.7416 26.4999C34.2361 27.24 34.5 28.11 34.5 29C34.4987 30.1931 34.0241 31.3369 33.1805 32.1805C32.3369 33.0241 31.1931 33.4987 30 33.5ZM35.5 17H24.5C22.7767 17.002 21.1245 17.6874 19.906 18.906C18.6874 20.1245 18.002 21.7767 18 23.5V34.5C18.002 36.2233 18.6874 37.8755 19.906 39.094C21.1245 40.3126 22.7767 40.998 24.5 41H35.5C37.2233 40.998 38.8755 40.3126 40.094 39.094C41.3126 37.8755 41.998 36.2233 42 34.5V23.5C41.998 21.7767 41.3126 20.1245 40.094 18.906C38.8755 17.6874 37.2233 17.002 35.5 17ZM41 34.5C40.9983 35.9582 40.4184 37.3562 39.3873 38.3873C38.3562 39.4184 36.9582 39.9983 35.5 40H24.5C23.0418 39.9983 21.6438 39.4184 20.6127 38.3873C19.5816 37.3562 19.0017 35.9582 19 34.5V23.5C19.0017 22.0418 19.5816 20.6438 20.6127 19.6127C21.6438 18.5816 23.0418 18.0017 24.5 18H35.5C36.9582 18.0017 38.3562 18.5816 39.3873 19.6127C40.4184 20.6438 40.9983 22.0418 41 23.5V34.5ZM37.5 22.5C37.5 22.6978 37.4414 22.8911 37.3315 23.0556C37.2216 23.22 37.0654 23.3482 36.8827 23.4239C36.7 23.4996 36.4989 23.5194 36.3049 23.4808C36.1109 23.4422 35.9327 23.347 35.7929 23.2071C35.653 23.0673 35.5578 22.8891 35.5192 22.6951C35.4806 22.5011 35.5004 22.3 35.5761 22.1173C35.6518 21.9346 35.78 21.7784 35.9444 21.6685C36.1089 21.5586 36.3022 21.5 36.5 21.5C36.7651 21.5003 37.0193 21.6058 37.2067 21.7933C37.3942 21.9807 37.4997 22.2349 37.5 22.5Z" fill="#E9615B" stroke="#E9615B" stroke-width="0.5"/>
</svg>