<svg width="59" height="59" viewBox="0 0 59 59" fill="none" xmlns="http://www.w3.org/2000/svg">
    <circle cx="29.5" cy="29.5" r="28.75" fill="#F9F8F8" stroke="#365DA7" stroke-width="1.5"/>
    <path d="M20.2844 26.184H23.2844V39H20.2844V26.184ZM21.7964 24.072C21.2524 24.072 20.7964 23.904 20.4284 23.568C20.0604 23.216 19.8764 22.784 19.8764 22.272C19.8764 21.76 20.0604 21.336 20.4284 21C20.7964 20.648 21.2524 20.472 21.7964 20.472C22.3404 20.472 22.7964 20.64 23.1644 20.976C23.5324 21.296 23.7164 21.704 23.7164 22.2C23.7164 22.728 23.5324 23.176 23.1644 23.544C22.8124 23.896 22.3564 24.072 21.7964 24.072ZM34.4939 26.04C36.1099 26.04 37.4059 26.512 38.3819 27.456C39.3579 28.4 39.8459 29.8 39.8459 31.656V39H36.8459V32.04C36.8459 30.92 36.5819 30.08 36.0539 29.52C35.5259 28.944 34.7739 28.656 33.7979 28.656C32.6939 28.656 31.8219 28.992 31.1819 29.664C30.5419 30.32 30.2219 31.272 30.2219 32.52V39H27.2219V26.184H30.0779V27.84C30.5739 27.248 31.1979 26.8 31.9499 26.496C32.7019 26.192 33.5499 26.04 34.4939 26.04Z" fill="#E9615B"/>
</svg>