<svg width="159" height="133" viewBox="0 0 159 133" fill="none" xmlns="http://www.w3.org/2000/svg">
    <path d="M137.799 61.384H144.223C147.756 61.384 150.969 64.3174 150.969 68.2285V71.8137C150.969 75.3988 153.859 78.6581 157.714 78.6581" stroke="#365DA7" stroke-width="3" stroke-miterlimit="10" stroke-linecap="round" stroke-linejoin="round"/>
    <path d="M137.799 61.3847C137.799 79.9625 125.915 96.2588 108.248 105.385V122.985C108.248 127.222 104.715 130.807 100.539 130.807C98.2903 130.807 96.363 129.829 95.0782 128.525C93.7933 127.222 92.8297 125.266 92.8297 122.985V110.925C87.0479 112.229 80.9449 113.207 74.8418 113.207C68.4176 113.207 62.6358 112.555 56.854 110.925V122.985C56.854 127.222 53.3206 130.807 49.1449 130.807C46.8964 130.807 44.9691 129.829 43.6843 128.525C42.3994 127.222 41.4358 125.266 41.4358 122.985V105.385C29.8721 99.518 20.8782 90.3921 15.7388 79.9625H1.60547V54.5402H11.8843C13.1691 45.4143 17.6661 36.9402 24.0903 30.0958C24.0903 18.3625 24.0903 2.06616 24.0903 2.06616L39.8297 18.0365C49.7873 12.8217 61.6721 9.56246 74.5206 9.56246C109.533 9.56246 137.799 32.7032 137.799 61.3847Z" stroke="#365DA7" stroke-width="3" stroke-miterlimit="10" stroke-linecap="round" stroke-linejoin="round"/>
    <path d="M39.1885 54.8656C43.6235 54.8656 47.2188 51.2176 47.2188 46.7175C47.2188 42.2174 43.6235 38.5693 39.1885 38.5693C34.7535 38.5693 31.1582 42.2174 31.1582 46.7175C31.1582 51.2176 34.7535 54.8656 39.1885 54.8656Z" stroke="#365DA7" stroke-width="3" stroke-miterlimit="10" stroke-linecap="round" stroke-linejoin="round"/>
    <path d="M86.261 29.966C85.5772 29.4518 84.7223 29.4518 84.0385 29.966L58.7352 51.7375C58.0514 52.4232 57.8804 53.4517 58.5643 54.1375C59.2481 54.8232 60.2739 54.9946 60.9578 54.3089L63.6933 51.9089V80.8803C63.6933 81.9089 64.3772 82.5946 65.403 82.5946H104.726C105.751 82.5946 106.435 81.9089 106.435 80.8803V52.0803L109.171 54.4803C109.513 54.8232 109.855 54.8232 110.367 54.8232C110.88 54.8232 111.393 54.6518 111.735 54.3089C112.419 53.6232 112.248 52.5946 111.564 51.9089L86.261 29.966ZM103.016 79.166H67.1126V48.9946L85.0643 33.3946L103.016 48.9946V79.166Z" fill="#E9615B"/>
</svg>
