<svg width="144" height="144" viewBox="0 0 144 144" fill="none" xmlns="http://www.w3.org/2000/svg">
<circle cx="72" cy="72" r="72" fill="#CFE7F0"/>
<path d="M53.5381 67.7521C53.5156 67.7687 51.2296 69.471 48.6923 69.471C45.6698 69.471 44.0206 67.9098 43.9396 67.8306C43.5803 67.4765 43.0066 67.4803 42.6533 67.8381C42.2986 68.1975 42.3008 68.778 42.6578 69.135C42.7463 69.2234 44.8726 71.3046 48.6923 71.3046C51.8521 71.3046 54.5228 69.3011 54.6353 69.2158C55.0358 68.9108 55.1161 68.3371 54.8131 67.9332C54.5116 67.5301 53.9408 67.4478 53.5381 67.7521Z" fill="#E9615B"/>
<path d="M44.2658 60.9091C44.1683 60.7098 43.929 60.6283 43.7318 60.7257C43.7265 60.7279 43.1108 61.0178 42.6075 60.7355C42.4155 60.6275 42.1725 60.697 42.0645 60.891C41.9573 61.0842 42.027 61.3288 42.219 61.4368C42.5198 61.6051 42.8295 61.661 43.1093 61.661C43.6395 61.661 44.0573 61.4594 44.0835 61.4458C44.2815 61.3484 44.3625 61.1076 44.2658 60.9091Z" fill="#E9615B"/>
<path d="M52.5352 61.4366C52.8359 61.605 53.1457 61.6609 53.4254 61.6609C53.9557 61.6609 54.3727 61.4585 54.3989 61.4457C54.5962 61.3483 54.6764 61.1098 54.5804 60.9112C54.4852 60.7119 54.2452 60.6297 54.0494 60.724C54.0427 60.727 53.4284 61.0177 52.9222 60.7346C52.7332 60.6281 52.4887 60.6968 52.3799 60.8909C52.2727 61.0849 52.3424 61.3287 52.5352 61.4366Z" fill="#E9615B"/>
<path d="M60.1768 70.8851C60.1341 70.8648 60.0898 70.8557 60.0441 70.8421C60.0396 70.8414 60.0358 70.8398 60.0313 70.8383C61.5201 68.5834 62.3158 65.6703 62.3158 62.1577V59.6031C62.6211 58.815 63.8496 55.4436 63.8496 52.1122C63.8496 46.8151 60.4221 43.3992 55.9588 41.6614C56.1126 41.2175 56.2153 40.7517 56.2153 40.2807C56.2153 37.2633 53.1238 35.3896 48.1468 35.3896C43.5778 35.3896 40.6266 37.3094 40.6266 40.2807C40.6266 40.6928 40.6798 41.0756 40.7578 41.4402C36.4356 42.9326 33.1311 45.9779 33.1311 51.2147C33.1311 54.5317 34.1841 58.7071 34.3821 59.4589V62.157C34.3821 65.6476 35.1276 68.5268 36.5511 70.7576C35.6083 71.0293 34.6873 71.329 33.7948 71.6597C33.7566 71.671 33.7176 71.668 33.6808 71.6846C33.6628 71.6921 33.6516 71.708 33.6343 71.717C32.2063 72.2553 30.8458 72.8622 29.5963 73.553C23.1463 77.1153 19.7368 82.3045 19.7368 88.5589V105.185C19.7368 105.691 20.1448 106.102 20.6481 106.102H76.3528C76.8561 106.102 77.2641 105.691 77.2641 105.185V89.5433C77.2641 80.4807 69.6051 73.8957 60.1768 70.8851ZM42.4491 40.2807C42.4491 38.4523 44.7396 37.2233 48.1476 37.2233C51.0291 37.2233 54.3936 38.0243 54.3936 40.2807C54.3936 40.5388 54.3321 40.8121 54.2331 41.0869C52.3168 40.5471 50.2798 40.2814 48.2803 40.2814C46.3416 40.2814 44.3691 40.4852 42.5143 40.9306C42.4768 40.7223 42.4491 40.5086 42.4491 40.2807ZM35.4433 55.7841C35.1831 54.3513 34.9536 52.6724 34.9536 51.2147C34.9536 45.5174 39.9358 42.1151 48.2811 42.1151C57.7776 42.1151 62.0286 47.1359 62.0286 52.1115C62.0286 53.81 61.6558 55.5667 61.2868 56.8915C61.0776 56.419 60.8488 55.9034 60.6156 55.3817L60.4431 54.9899C58.9881 51.6887 56.7883 46.7011 48.5008 46.7011C40.8921 46.7011 38.4478 50.7912 36.6621 53.7776C36.4401 54.149 36.2271 54.506 36.0118 54.8397C35.7958 55.1734 35.6083 55.4882 35.4433 55.7841ZM36.2038 62.157V58.8158C36.2691 58.3598 36.5286 57.4071 37.5396 55.8377C37.7653 55.4874 37.9896 55.113 38.2221 54.7234C39.9561 51.8231 41.9218 48.5355 48.4993 48.5355C55.6018 48.5355 57.3613 52.5274 58.7751 55.735L58.9513 56.1336C59.6383 57.6728 60.2833 59.1419 60.4933 59.6205V62.157C60.4933 70.0396 56.1973 74.3811 48.3981 74.3811C42.8353 74.3811 36.2038 72.2606 36.2038 62.157ZM37.7578 72.3111C40.1331 74.8642 43.7151 76.2155 48.3988 76.2155C52.9183 76.2155 56.4456 74.8703 58.8216 72.3693C58.8231 72.3693 58.8246 72.37 58.8261 72.37C58.4076 75.6055 54.9748 78.4213 50.6136 81.4432C41.0383 81.3292 36.6696 75.3572 35.3391 73.0487C36.1266 72.7784 36.9321 72.5323 37.7578 72.3111ZM21.5586 104.268V88.5581C21.5586 81.5542 26.4058 77.4067 30.4723 75.1601C31.4526 74.6189 32.5138 74.1373 33.6133 73.6919C34.1548 74.6657 35.2641 76.3899 37.1158 78.1186C39.2841 80.1425 42.8683 82.4948 48.1521 83.1198C48.0486 83.1893 47.9473 83.258 47.8431 83.3282C40.0933 88.5446 31.3423 94.4373 30.8271 104.268H21.5586ZM75.4416 104.268H32.6533C33.1926 95.3983 41.4981 89.806 48.8556 84.8531C54.6966 80.9208 59.7943 77.4777 60.5826 72.9309C68.8791 75.8222 75.4416 81.6523 75.4416 89.544V104.268Z" fill="#E9615B"/>
<path d="M48.3162 61.7803C49.1472 63.6887 51.0522 64.9297 53.4454 64.9297C56.7184 64.9297 59.0937 62.6643 59.0937 59.542V57.4019C59.0937 56.9919 58.8229 56.6311 58.4307 56.5194C58.3054 56.4839 55.3452 55.6475 53.4454 55.6475C52.0114 55.6475 49.3579 55.6558 48.3087 57.5845C47.2159 55.6558 44.4657 55.6475 43.1284 55.6475C41.5714 55.6475 38.4252 56.2204 38.2924 56.2446C37.8597 56.3239 37.5447 56.7036 37.5447 57.1467V59.542C37.5447 62.6635 39.8929 64.9297 43.1284 64.9297C45.5487 64.9297 47.4754 63.6879 48.3162 61.7803ZM50.1979 58.9124C50.1979 58.6935 50.1117 58.501 49.9842 58.3432C50.4057 57.7635 51.3687 57.4811 53.4477 57.4811C54.6019 57.4811 56.3329 57.8729 57.2719 58.1092V59.5412C57.2719 61.6331 55.6984 63.0946 53.4454 63.0946C51.2952 63.0946 49.7869 61.7116 49.6999 59.7164C49.9917 59.5646 50.1979 59.2665 50.1979 58.9124ZM39.3664 59.542V57.9205C40.3767 57.7529 42.1609 57.4819 43.1284 57.4819C45.2847 57.4819 46.2627 57.7921 46.6774 58.4021C46.5762 58.5501 46.5034 58.7192 46.5034 58.9124C46.5034 59.2408 46.6842 59.5148 46.9414 59.6771C46.8732 61.6942 45.3312 63.0953 43.1284 63.0953C40.9137 63.0953 39.3664 61.6346 39.3664 59.542Z" fill="#E9615B"/>
<path d="M99.1523 55.4273C99.222 55.5692 99.363 55.6515 99.5108 55.6515C99.57 55.6515 99.63 55.6379 99.6863 55.61C99.693 55.6069 100.337 55.305 100.863 55.6001C101.056 55.7096 101.298 55.6394 101.406 55.4446C101.513 55.2514 101.444 55.0068 101.252 54.8988C100.355 54.3953 99.3758 54.8694 99.3345 54.889C99.1373 54.9879 99.0555 55.228 99.1523 55.4273Z" fill="#E9615B"/>
<path d="M87.213 55.4273C87.282 55.5692 87.423 55.6515 87.5708 55.6515C87.63 55.6515 87.69 55.6379 87.7463 55.61C87.753 55.6069 88.3943 55.305 88.9215 55.6001C89.1135 55.7096 89.3565 55.6394 89.4645 55.4446C89.5718 55.2514 89.502 55.0068 89.31 54.8988C88.4123 54.3953 87.4365 54.8694 87.3945 54.889C87.1973 54.9879 87.1155 55.228 87.213 55.4273Z" fill="#E9615B"/>
<path d="M92.6639 67.3594C93.1656 67.4628 93.7071 67.5149 94.2734 67.5149C94.8216 67.5149 95.3459 67.4696 95.8311 67.3798C96.3261 67.2884 96.6539 66.8106 96.5631 66.3116C96.4716 65.8141 96.0014 65.4819 95.5019 65.5756C94.7421 65.7167 93.7874 65.719 93.0299 65.562C92.5304 65.4631 92.0549 65.7809 91.9536 66.2769C91.8531 66.7728 92.1711 67.2575 92.6639 67.3594Z" fill="#E9615B"/>
<path d="M104.656 69.1195C106.979 66.9583 108.37 63.842 108.69 59.8863C109.705 60.1528 110.718 60.2585 111.508 60.2585C112.858 60.2585 113.958 59.2273 113.958 57.9606C113.958 57.599 113.89 57.2653 113.761 56.9671C114.397 56.6048 114.996 55.8567 114.996 54.3303C114.996 52.5834 113.958 51.8731 112.901 51.7727C112.497 50.324 111.4 48.402 109.198 48.402C108.979 48.402 108.769 48.4103 108.565 48.4269C107.797 46.6937 103.987 39.4111 94.3455 39.4111C86.1277 39.4111 82.3087 44.9181 80.7952 48.0676C80.475 47.983 80.1285 47.9279 79.7325 47.9279C77.9737 47.9279 77.2485 49.323 77.028 50.4727C75.7935 50.5663 73.89 51.054 73.89 53.6003C73.89 55.1742 74.5327 56.1103 75.3007 56.6327C75.0765 56.9732 74.9287 57.4095 74.9287 57.9613C74.9287 59.2281 76.0282 60.2593 77.379 60.2593C78.387 60.2593 79.2562 60.0351 79.989 59.6629C80.2627 63.719 81.6037 66.8782 83.91 69.0644C80.6385 69.8533 77.5732 70.9872 74.9437 72.4396C68.2762 76.122 64.752 81.4848 64.752 87.9475V105.162C64.752 105.669 65.16 106.08 65.6632 106.08H123.34C123.843 106.08 124.251 105.669 124.251 105.162V88.9659C124.25 78.9884 115.266 71.9165 104.656 69.1195ZM109.198 50.0326C111.037 50.0326 111.433 52.6144 111.449 52.7223C111.48 52.9443 111.605 53.1428 111.786 53.2726C111.968 53.4025 112.197 53.4516 112.417 53.4078C112.438 53.404 112.522 53.3904 112.633 53.3904C113.09 53.3904 113.374 53.5474 113.374 54.3288C113.374 55.6695 112.768 55.6695 112.442 55.6695C112.343 55.6695 112.253 55.6604 112.178 55.6498C111.98 55.5947 111.849 55.5819 111.849 55.5819C111.448 55.5449 111.058 55.8204 110.974 56.2273C110.89 56.6357 111.121 57.0426 111.516 57.171C111.516 57.171 111.626 57.2072 111.81 57.2419C112.336 57.4178 112.336 57.796 112.336 57.9598C112.336 58.3713 111.907 58.6257 111.508 58.6257C111.457 58.6257 106.675 58.5471 106.04 55.9578C106.058 55.7653 106.068 55.5691 106.068 55.3698C106.068 55.0474 106.037 54.7409 105.986 54.4458C106.147 50.3693 107.431 50.0326 109.198 50.0326ZM94.3455 41.2433C102.627 41.2433 105.955 47.0938 106.784 48.8965C105.72 49.4362 105.033 50.4365 104.668 51.984C103.659 51.0555 102.148 50.5331 100.25 50.5331C97.3762 50.5331 95.385 51.7508 94.7332 53.7996H93.8925C93.2332 51.7508 91.2187 50.5331 88.311 50.5331C85.359 50.5331 83.343 51.8202 82.7482 53.9702C82.752 52.6906 82.761 52.2497 82.767 51.9319C82.7722 51.7115 82.776 51.5417 82.776 51.1876C82.776 50.3278 82.6072 49.6438 82.2862 49.1222C83.4742 46.4378 86.7517 41.2433 94.3455 41.2433ZM104.245 55.369C104.245 57.5544 102.602 59.0809 100.25 59.0809C97.938 59.0809 96.3232 57.5544 96.3232 55.369C96.3232 52.8884 98.4592 52.3675 100.25 52.3675C101.742 52.3683 104.245 52.7578 104.245 55.369ZM92.3047 55.369C92.3047 57.5544 90.6622 59.0809 88.3102 59.0809C85.998 59.0809 84.3832 57.5544 84.3832 55.369C84.3832 52.8884 86.5192 52.3675 88.3102 52.3675C89.802 52.3683 92.3047 52.7578 92.3047 55.369ZM81.1455 51.898C81.1365 52.3033 81.1245 52.8861 81.1245 55.1629C81.1245 56.8833 79.8375 58.6257 77.3782 58.6257C76.98 58.6257 76.5502 58.3713 76.5502 57.9598C76.5502 57.3869 76.9777 57.2389 77.2222 57.2034C77.6475 57.1543 77.9572 56.7799 77.9347 56.3496C77.9122 55.9193 77.556 55.5804 77.1277 55.5766C76.749 55.5736 75.5122 55.4203 75.5122 53.5988C75.5122 52.5917 75.8595 52.0807 77.76 52.0807C78.2077 52.0807 78.57 51.7153 78.5707 51.2646C78.5707 51.1952 78.585 49.5585 79.7332 49.5585C80.8492 49.5585 81.1552 49.9088 81.1552 51.1884C81.1537 51.5266 81.15 51.6873 81.1455 51.898ZM81.7395 58.1871C82.1842 57.5862 82.473 56.8992 82.623 56.1956C83.001 58.9737 85.272 60.9153 88.3102 60.9153C91.5862 60.9153 93.9817 58.7087 94.1145 55.6347H94.5127C94.6432 58.7087 97.011 60.9153 100.249 60.9153C102.564 60.9153 104.443 59.8146 105.392 58.0844C105.813 58.5396 106.327 58.9118 106.897 59.2077C106.492 66.6616 102.103 70.7667 94.3957 70.7667C88.6425 70.7667 81.7897 68.5783 81.7395 58.1871ZM99.4665 74.2906C99.0255 74.2348 97.9455 73.4293 96.9495 72.4464C98.001 72.3166 98.9895 72.1052 99.9097 71.8138C99.9105 71.8198 99.9082 71.8259 99.909 71.8319C99.9802 72.2788 100.031 73.5629 99.4665 74.2906ZM92.874 72.546C91.9065 73.4836 90.8842 74.2363 90.4575 74.2906C89.9917 73.689 89.9475 72.7144 89.9857 72.1391C90.8917 72.3415 91.8532 72.4789 92.874 72.546ZM122.428 104.244H66.5737V87.9468C66.5737 80.6794 71.6017 76.3764 75.8197 74.0468C78.7035 72.4547 82.14 71.2552 85.8067 70.507C86.5395 70.9524 87.3435 71.3223 88.2045 71.6281C88.1347 72.1346 87.939 74.2015 89.1532 75.5807C89.4675 75.9371 89.8942 76.1265 90.387 76.1281C90.39 76.1281 90.3922 76.1281 90.3945 76.1281C92.043 76.1281 94.2855 73.7705 94.935 73.0465C94.9485 73.0322 94.9515 73.0133 94.9635 72.9982C94.9755 73.0133 94.9792 73.0322 94.992 73.0465C95.6407 73.7697 97.8825 76.1281 99.531 76.1281C99.5332 76.1281 99.5355 76.1281 99.5385 76.1281C100.03 76.1265 100.458 75.9371 100.772 75.5807C102.086 74.0898 101.751 71.7911 101.708 71.5337C101.686 71.3978 101.63 71.2778 101.557 71.1714C101.978 70.9766 102.388 70.769 102.774 70.535C113.274 72.8533 122.429 79.4708 122.429 88.9674V104.244H122.428Z" fill="#E9615B"/>
</svg>
