<svg width="59" height="60" viewBox="0 0 59 60" fill="none" xmlns="http://www.w3.org/2000/svg">
<circle cx="29.5" cy="29.5039" r="28.75" fill="#F9F8F8" stroke="#365DA7" stroke-width="1.5"/>
<path fill-rule="evenodd" clip-rule="evenodd" d="M24.162 19.332C24.1463 19.3349 24.1308 19.3387 24.1155 19.3436C22.5266 19.8316 21.4539 20.6732 20.8713 21.7505C20.2887 22.8279 20.2037 24.1112 20.4644 25.4482C20.9858 28.1223 22.8841 31.0803 25.29 33.5412C27.6958 36.0022 30.612 37.9603 33.3016 38.518C34.6464 38.7969 35.9419 38.7184 37.0574 38.1343C38.1729 37.5502 39.0762 36.4654 39.6504 34.8436C39.6765 34.7653 39.6758 34.6805 39.6484 34.6026C39.6211 34.5247 39.5686 34.4581 39.4993 34.4134L34.1737 31.0761C34.1625 31.0678 34.1509 31.0601 34.1388 31.0531L34.1156 31.03C34.1117 31.0299 34.1078 31.0299 34.1039 31.03C34.0963 31.0259 34.0886 31.022 34.0807 31.0185C34.0768 31.0184 34.0729 31.0184 34.0691 31.0185C34.0508 31.0051 34.0313 30.9934 34.0109 30.9835C34.0071 30.9834 34.0032 30.9834 33.9993 30.9835C33.9916 30.9832 33.9838 30.9832 33.9761 30.9835C33.9722 30.9834 33.9683 30.9834 33.9645 30.9835C33.9416 30.9774 33.9183 30.9736 33.8947 30.972C33.8711 30.9736 33.8478 30.9774 33.8249 30.9835C33.7607 30.9949 33.7005 31.0229 33.6505 31.0649C33.6464 31.0725 33.6425 31.0801 33.6389 31.088C33.6167 31.1088 33.5972 31.1322 33.5808 31.1577L32.2087 32.5182C29.826 31.3967 28.0585 29.431 26.4877 26.774L27.7552 25.5065L27.8133 25.4484C27.8214 25.4411 27.8292 25.4334 27.8366 25.4254C27.8404 25.4254 27.8443 25.4254 27.8482 25.4254C27.8523 25.4178 27.8562 25.4101 27.8598 25.4023C27.8637 25.3985 27.8676 25.3947 27.8714 25.3907C27.8755 25.3832 27.8794 25.3755 27.883 25.3677C27.8831 25.3638 27.8831 25.36 27.883 25.3561C27.887 25.3524 27.8908 25.3485 27.8946 25.3446C27.8988 25.337 27.9026 25.3294 27.9062 25.3215C27.9102 25.3178 27.9141 25.3139 27.9178 25.31C27.9181 25.3023 27.9181 25.2946 27.9178 25.2869C27.9181 25.2792 27.9181 25.2715 27.9178 25.2639C27.9218 25.2601 27.9257 25.2562 27.9294 25.2523C27.9297 25.2446 27.9297 25.2369 27.9294 25.2292C27.9295 25.2254 27.9295 25.2216 27.9294 25.2177C27.9297 25.21 27.9297 25.2023 27.9294 25.1947C27.9295 25.1908 27.9295 25.187 27.9294 25.1831C27.9297 25.1754 27.9297 25.1677 27.9294 25.16C27.9295 25.1562 27.9295 25.1524 27.9294 25.1485C27.9297 25.1408 27.9297 25.1331 27.9294 25.1254C27.9295 25.1216 27.9295 25.1177 27.9294 25.1139C27.9258 25.1061 27.922 25.0984 27.9178 25.0908C27.9179 25.087 27.9179 25.0832 27.9178 25.0793C27.9142 25.0715 27.9104 25.0638 27.9062 25.0562C27.9063 25.0524 27.9063 25.0485 27.9062 25.0447C27.8988 25.0367 27.8911 25.029 27.883 25.0216C27.883 25.0178 27.883 25.0139 27.883 25.0101C27.8792 25.0062 27.8753 25.0023 27.8714 24.9985C27.8585 24.9736 27.8429 24.9502 27.8249 24.9288C27.8211 24.9248 27.8172 24.921 27.8132 24.9172L24.5458 19.5103C24.5135 19.4587 24.4691 19.4158 24.4164 19.3854C24.3636 19.355 24.3043 19.338 24.2435 19.3358C24.2164 19.3329 24.1891 19.3329 24.1621 19.3358L24.162 19.332ZM24.069 20.146L27.0807 25.1344L25.7551 26.4483C25.6963 26.5067 25.6587 26.5829 25.6481 26.6651C25.6376 26.7472 25.6548 26.8305 25.6969 26.9018C27.3966 29.8452 29.377 32.0916 32.1388 33.3088C32.207 33.3372 32.2822 33.3446 32.3547 33.3301C32.4272 33.3156 32.4937 33.2798 32.5458 33.2274L33.9527 31.8204L38.8481 34.8785C38.3243 36.2048 37.5902 37.0277 36.7202 37.4832C35.7909 37.9698 34.6781 38.0513 33.4527 37.7972C31.0021 37.289 28.145 35.4032 25.8132 33.0181C23.4814 30.633 21.6725 27.7481 21.1969 25.3088C20.9591 24.0892 21.0542 22.9987 21.5341 22.1111C21.9831 21.2809 22.7798 20.5955 24.069 20.146Z" fill="#E9615B" stroke="#E9615B" stroke-width="0.5"/>
<path fill-rule="evenodd" clip-rule="evenodd" d="M30 13.0039C21.1701 13.0039 14 20.1702 14 29.0039C14 32.2736 14.9853 35.3207 16.7226 37.9283L14.8417 44.2051C14.8221 44.2707 14.821 44.3404 14.8384 44.4066C14.8558 44.4728 14.8912 44.5329 14.9406 44.5803C14.99 44.6277 15.0515 44.6605 15.1183 44.6752C15.1852 44.6899 15.2548 44.6859 15.3195 44.6636L21.4679 42.5417C23.9322 44.1006 26.8634 45.0039 30 45.0039C38.8336 45.0039 46 37.8375 46 29.0039C46 20.1703 38.8336 13.0039 30 13.0039ZM30 13.7481C38.4315 13.7481 45.2558 20.5724 45.2558 29.0039C45.2558 37.4355 38.4315 44.2597 30 44.2597C26.9436 44.2597 24.0975 43.3627 21.7188 41.8192C21.6714 41.7885 21.6176 41.7689 21.5614 41.7621C21.5053 41.7552 21.4483 41.7612 21.3949 41.7797L15.7629 43.7234L17.4857 37.974C17.5016 37.921 17.5055 37.8651 17.497 37.8103C17.4885 37.7556 17.4679 37.7034 17.4367 37.6577C15.7161 35.133 14.7442 32.1837 14.7442 29.0039C14.7442 20.5725 21.5723 13.7481 30 13.7481Z" fill="#E9615B" stroke="#E9615B" stroke-width="0.5"/>
</svg>
