<svg width="144" height="144" viewBox="0 0 144 144" fill="none" xmlns="http://www.w3.org/2000/svg">
<circle cx="72" cy="72" r="72" fill="#CFE7F0"/>
<path d="M61.2574 72.3994H57.4399C57.1541 72.3994 56.8819 72.5383 56.7094 72.7678C56.6404 72.8592 55.1074 74.8491 52.0451 75.145C51.9476 75.1269 51.8539 75.1261 51.7609 75.1261C51.6266 75.1261 51.4894 75.1269 51.3446 75.1827C51.3236 75.1827 51.3041 75.185 51.2824 75.185C48.0049 75.185 46.5791 72.9339 46.5229 72.8433C46.3579 72.5678 46.0616 72.3994 45.7421 72.3994H42.4579C32.5789 72.3994 27.7766 80.1175 27.7766 95.9961V105.511C27.7766 106.017 28.1846 106.392 28.6879 106.392C28.7726 106.392 28.8551 106.378 28.9339 106.355H74.3104C74.8136 106.355 75.2216 105.944 75.2216 105.438V94.4705C75.2224 79.8254 70.5236 72.3994 61.2574 72.3994ZM57.8599 74.2346H61.2574C63.2239 74.2346 64.9406 74.6279 66.4234 75.3994C66.4196 75.4092 66.4114 75.4152 66.4076 75.4251C66.3829 75.4907 63.9364 81.807 54.7249 83.0201C54.1301 79.8495 53.6479 77.954 53.2384 76.8186C55.7044 76.3007 57.2396 74.9087 57.8599 74.2346ZM42.4586 74.2346H45.2786C45.9079 75.0265 47.4949 76.6178 50.2384 76.9537C49.8409 78.0982 49.3766 79.9582 48.8104 82.9907C40.2611 81.6847 38.2931 75.2899 38.2084 75.0008C38.1994 74.9706 38.1776 74.9487 38.1664 74.92C39.4481 74.4626 40.8761 74.2346 42.4586 74.2346ZM73.3999 104.522H29.5999V95.9969C29.5999 85.0448 31.8266 78.4137 36.5141 75.6863C36.9244 76.9183 39.6589 83.8626 49.4524 84.9232C49.9301 84.9761 50.3614 84.6477 50.4461 84.1751C50.8241 82.075 51.3386 79.7046 51.7616 78.1986C52.1869 79.7076 52.7044 82.0841 53.0861 84.191C53.1656 84.6303 53.5459 84.9436 53.9816 84.9436C54.0101 84.9436 54.0386 84.9421 54.0671 84.9398C63.8726 84.0166 67.2544 77.9668 67.9639 76.42C71.6044 79.3717 73.3991 85.3407 73.3991 94.4712V104.522H73.3999Z" fill="#365FA7"/>
<path d="M56.2401 57.6166H57.4394C57.9426 57.6166 58.3506 57.206 58.3506 56.6994C58.3506 56.1929 57.9426 55.7822 57.4394 55.7822H56.2401C55.7369 55.7822 55.3289 56.1929 55.3289 56.6994C55.3289 57.206 55.7369 57.6166 56.2401 57.6166Z" fill="#365FA7"/>
<path d="M45.743 57.6166H47.0413C47.5445 57.6166 47.9525 57.206 47.9525 56.6994C47.9525 56.1929 47.5445 55.7822 47.0413 55.7822H45.743C45.2398 55.7822 44.8318 56.1929 44.8318 56.6994C44.8318 57.206 45.2398 57.6166 45.743 57.6166Z" fill="#365FA7"/>
<path d="M45.7153 62.8566C45.3793 63.2333 45.4101 63.813 45.7843 64.152C45.8728 64.232 47.9916 66.114 51.2713 66.114C54.8226 66.114 56.7973 64.2056 56.8798 64.1248C57.2376 63.7723 57.2428 63.197 56.8948 62.8347C56.5461 62.4716 55.9701 62.4625 55.6086 62.8105C55.5463 62.8709 54.0456 64.2803 51.2721 64.2803C48.7183 64.2803 47.0226 62.8052 47.0001 62.7856C46.6251 62.4489 46.0513 62.4814 45.7153 62.8566Z" fill="#365FA7"/>
<path d="M69.9373 58.4341C67.2658 45.2165 61.3955 39.0596 51.4655 39.0596C41.9465 39.0596 35.9045 45.3909 32.996 58.416C32.42 60.9948 32.4245 63.957 32.429 67.0929L32.4298 67.9791C32.4298 68.8986 32.4298 69.4534 43.5635 70.2083C44.0705 70.2483 44.5003 69.8603 44.534 69.3545C44.5355 69.3334 44.5258 69.3145 44.5258 69.2926H44.5828C47.2198 70.847 50.2633 71.0561 51.6748 71.0561C54.6268 71.0561 56.8115 70.4416 58.4285 69.4776C58.517 69.8973 58.8725 70.2098 59.3045 70.2098C59.3248 70.2098 59.3458 70.2098 59.3668 70.2083C70.5005 69.4534 70.5005 68.8986 70.5005 67.9791V67.8832C70.4998 64.308 70.5005 61.2205 69.9373 58.4341ZM61.0378 60.4686C61.0378 66.2919 57.8878 69.2443 51.6748 69.2443C43.0168 69.2443 41.7238 63.5629 41.7238 60.1757V52.9181C41.7238 52.6123 41.753 52.1767 41.8363 51.68C43.5845 52.4591 46.3303 53.4397 49.0918 53.4397C49.5125 53.4397 49.9258 53.4163 50.3203 53.371C50.6098 53.3378 50.9105 53.3204 51.2143 53.3204C52.8335 53.3204 54.2045 53.793 54.7595 54.0723C55.0708 54.2293 55.5163 54.2958 56.2498 54.2958C57.593 54.2958 59.6765 54.0617 61.0385 53.8889V60.4686H61.0378Z" fill="#365FA7"/>
<path d="M94.6763 72.4193C91.7033 72.402 82.0081 71.4915 82.0726 60.5349L82.1153 53.278C82.1431 48.5803 85.4161 43.114 94.5496 43.1684C106.587 43.2408 106.88 52.3835 106.874 53.426L106.829 60.9758C106.809 64.4385 105.584 72.4842 94.6763 72.4193ZM94.5391 45.002C84.4958 44.9416 83.9461 51.8943 83.9378 53.2886L83.8951 60.5455C83.8418 69.5477 91.4251 70.5653 94.6876 70.5849C103.17 70.6355 104.982 65.3814 105.008 60.9652L105.053 53.4147C105.06 52.0204 104.592 45.0624 94.5391 45.002Z" fill="#365FA7"/>
<path d="M94.7002 38.7004C88.6304 38.6642 84.2572 43.0615 84.0742 43.2487C83.9024 43.4238 83.8087 43.6601 83.8117 43.9062C83.8154 44.1523 83.9167 44.3856 84.0929 44.5554C84.1079 44.5698 84.1574 44.6166 84.2227 44.6785C84.0037 44.6234 83.7682 44.6445 83.5634 44.757C83.4239 44.834 80.1427 46.679 79.3702 50.2527C78.6029 53.7932 81.6824 58.5913 81.8137 58.7936C81.9839 59.0564 82.2712 59.2073 82.5712 59.2096C82.6589 59.2096 82.7474 59.1975 82.8344 59.1719C83.2207 59.0571 83.4862 58.7023 83.4884 58.2977C83.5109 54.5066 87.6502 48.0922 87.6922 48.028C87.7589 47.9253 87.8017 47.8136 87.8234 47.6996C89.7329 49.1656 92.2417 50.9011 95.0632 52.3566C100.054 54.9316 106.477 57.5858 106.541 57.6122C106.651 57.6575 106.766 57.6802 106.882 57.6809C107.021 57.6817 107.16 57.6507 107.287 57.5881C107.521 57.4726 107.695 57.2627 107.764 57.0106C107.949 56.3463 108.869 52.9794 108.875 51.9603C108.919 44.3259 102.958 38.7495 94.7002 38.7004Z" fill="#365FA7"/>
<path d="M100.527 58.0883L99.3279 58.0815C98.8246 58.0785 98.4196 57.6655 98.4219 57.159C98.4241 56.6525 98.8351 56.2448 99.3384 56.2471L100.538 56.2539C101.041 56.2569 101.446 56.6698 101.444 57.1764C101.441 57.6829 101.03 58.0913 100.527 58.0883Z" fill="#365FA7"/>
<path d="M90.1291 58.0256L88.8308 58.018C88.3276 58.015 87.9226 57.6021 87.9248 57.0955C87.9271 56.589 88.3381 56.1806 88.8413 56.1836L90.1396 56.1912C90.6428 56.1942 91.0486 56.6071 91.0456 57.1136C91.0426 57.6202 90.6323 58.0286 90.1291 58.0256Z" fill="#365FA7"/>
<path d="M94.3078 66.548C91.0273 66.5284 88.9206 64.6336 88.8328 64.5536C88.4601 64.2124 88.4331 63.6326 88.7713 63.2582C89.1088 62.8845 89.6826 62.8558 90.0553 63.194C90.0733 63.2099 91.7608 64.6985 94.3183 64.7144C97.0881 64.731 98.6451 63.2899 98.6593 63.2755C99.0208 62.923 99.5968 62.9313 99.9478 63.2959C100.298 63.6598 100.289 64.2403 99.9276 64.5928C99.8443 64.6736 97.8583 66.5692 94.3078 66.548Z" fill="#365FA7"/>
<path d="M106.285 72.9062L100.441 72.8715C100.155 72.87 99.8819 73.0074 99.7079 73.2354C99.6336 73.3335 97.8411 75.6412 94.2674 75.6193C90.9906 75.6005 89.5776 73.3403 89.5221 73.2497C89.3586 72.9734 89.0639 72.8036 88.7444 72.8013L82.7571 72.7658C79.3994 72.7462 75.7919 74.256 73.1076 76.806C70.7879 79.0096 68.0144 83.0536 67.9746 89.8108L67.8809 105.717C67.8779 106.223 68.2964 106.636 68.7996 106.639L119.814 106.944C120.317 106.947 120.727 106.539 120.73 106.032L120.82 90.9861C120.889 79.1742 113.56 72.95 106.285 72.9062ZM94.2561 77.4538C97.8824 77.4756 100.073 75.5423 100.849 74.7082L102.745 74.7195C101.853 76.1787 99.4866 78.9009 94.2479 78.8692C89.4494 78.8405 87.3561 76.2036 86.5281 74.6229L88.2689 74.6334C88.9694 75.525 90.8616 77.4341 94.2561 77.4538ZM118.913 105.104L69.7086 104.81L69.7971 89.8213C69.8594 79.2685 77.4066 74.5678 82.7466 74.6002L84.5196 74.6108C84.7821 75.2653 85.2921 76.2995 86.1951 77.3315C87.5286 78.8564 90.0074 80.6787 94.2381 80.7036C101.675 80.7481 104.247 76.0028 104.803 74.7316L106.274 74.7406C114.689 74.7912 119.044 82.9457 118.997 90.9756L118.913 105.104Z" fill="#365FA7"/>
</svg>
