<svg width="59" height="59" viewBox="0 0 59 59" fill="none" xmlns="http://www.w3.org/2000/svg">
    <circle cx="29.5" cy="29.5" r="28.75" fill="#F9F8F8" stroke="#365DA7" stroke-width="1.5"/>
    <path d="M21.1466 20.6177H38.8525C41.3642 20.6177 43.3819 22.6353 43.3819 25.1471V34.6177C43.3819 37.1294 41.3642 39.1471 38.8525 39.1471H21.1466C18.6348 39.1471 16.6172 37.1294 16.6172 34.6177V25.1471C16.6172 22.6353 18.6348 20.6177 21.1466 20.6177Z" stroke="#E9615B" stroke-width="1.5" stroke-linecap="round" stroke-linejoin="round"/>
    <path d="M33.7053 29.1412C34.117 29.3471 34.2817 29.8412 34.0759 30.253C33.9935 30.4177 33.87 30.5412 33.7053 30.6236L31.1523 31.9412L28.3523 33.3824C27.9406 33.5883 27.4464 33.4236 27.2406 33.0118C27.1994 32.8883 27.1582 32.7648 27.1582 32.6412V27.1236C27.1582 26.6706 27.5288 26.3 27.9817 26.3C28.1053 26.3 28.2288 26.3412 28.3523 26.3824L31.1523 27.8236L33.7053 29.1412Z" fill="#E9615B"/>
</svg>