<svg id="Layer_1" data-name="Layer 1" xmlns="http://www.w3.org/2000/svg" xmlns:xlink="http://www.w3.org/1999/xlink" viewBox="0 0 652 109"><defs><style>.cls-1{fill:none;}.cls-2{clip-path:url(#clip-path);}.cls-3{fill:#fff;}.cls-4{fill:#e9615b;}</style><clipPath id="clip-path"><rect class="cls-1" width="499.3" height="109"/></clipPath></defs><g class="cls-2"><path class="cls-3" d="M127.4,23.5h0c0,.1.1.1.2.1A.35.35,0,0,0,127.4,23.5Zm0,0h0c0,.1.1.1.2.1A.35.35,0,0,0,127.4,23.5Z"/><path class="cls-3" d="M127.6,23.6h-.2A.14.14,0,0,1,127.6,23.6Z"/><path class="cls-3" d="M128.2,22.8h0c0,.1.1.1.2.1C128.3,22.8,128.3,22.8,128.2,22.8Zm0,0h0c0,.1.1.1.2.1C128.3,22.8,128.3,22.8,128.2,22.8Z"/><path class="cls-3" d="M128.4,22.9h-.2C128.3,22.8,128.3,22.8,128.4,22.9Z"/><path class="cls-3" d="M84.1,83.5a3.37,3.37,0,0,1-3.4-3.4V48.5c0-4.4,1.2-7.7,3.7-10.2s5.9-3.7,10.2-3.7h5.5a2.9,2.9,0,1,1,0,5.8H96a8.63,8.63,0,0,0-6.4,2.3,9,9,0,0,0-2.2,6.5V80.1A3.23,3.23,0,0,1,84.1,83.5Z"/><path class="cls-3" d="M134.7,84.8a26.46,26.46,0,0,1-13.2-3.4,23.68,23.68,0,0,1-9-9.3,26.1,26.1,0,0,1-3.2-13A27.31,27.31,0,0,1,112.5,46a24.48,24.48,0,0,1,22.2-12.7,25.55,25.55,0,0,1,13.1,3.4,24.83,24.83,0,0,1,9,9.2A26,26,0,0,1,160.1,59a25.64,25.64,0,0,1-3.3,13,24.81,24.81,0,0,1-22.1,12.8Zm0-5.9A17.71,17.71,0,0,0,151,69.1a22.45,22.45,0,0,0,0-20.2,19.07,19.07,0,0,0-6.6-7.2,17.63,17.63,0,0,0-9.7-2.6,18.87,18.87,0,0,0-9.8,2.6,17.43,17.43,0,0,0-6.5,7.2,22.45,22.45,0,0,0,0,20.2,18.82,18.82,0,0,0,6.5,7.2A18.62,18.62,0,0,0,134.7,78.9Z"/><path class="cls-3" d="M174.8,83.5a2.9,2.9,0,0,1-2.9-2.9V35.5a25,25,0,0,1,1.7-9.1,23.31,23.31,0,0,1,4.9-7.4,22.13,22.13,0,0,1,7.6-4.9,25.54,25.54,0,0,1,9.8-1.8,26.76,26.76,0,0,1,11.4,2.4,21.76,21.76,0,0,1,8.3,6.6,16,16,0,0,1,3.1,9.9,15.14,15.14,0,0,1-1.3,6.3,14.63,14.63,0,0,1-4,5.4,17.18,17.18,0,0,1-7,3.6,23,23,0,0,1,8.1,4.2,20.34,20.34,0,0,1,4.9,6.2,14.65,14.65,0,0,1,1.7,6.9,19.12,19.12,0,0,1-2.5,9.6,20.66,20.66,0,0,1-7.1,7.3A20,20,0,0,1,201,83.4h-6.8a2.9,2.9,0,1,1,0-5.8h5.6a15.07,15.07,0,0,0,7.8-2,13.58,13.58,0,0,0,5-5.1,13.11,13.11,0,0,0,1.7-6.7,12.82,12.82,0,0,0-2-6.8,14.21,14.21,0,0,0-5.7-5.1,19.85,19.85,0,0,0-9.2-2h-2.6V44H197a18.59,18.59,0,0,0,8.1-1.6,12.33,12.33,0,0,0,5.1-4.4,11.75,11.75,0,0,0,1.8-6.5,12.84,12.84,0,0,0-2.2-7.3,14.53,14.53,0,0,0-5.9-4.7,19.86,19.86,0,0,0-16.9.6,16.77,16.77,0,0,0-6.2,6.2,18.46,18.46,0,0,0-2.3,9.6V80.4a2.9,2.9,0,0,1-2.9,2.9l-.8.2Z"/><path class="cls-3" d="M218.7,94.7a2.9,2.9,0,0,1,2.9-2.9H225a8.72,8.72,0,0,0,6.5-2.3,9.41,9.41,0,0,0,2.1-6.5V38a3.4,3.4,0,1,1,6.8,0V83.8c0,4.3-1.2,7.7-3.7,10.2s-5.9,3.7-10.2,3.7h-4.7A3.1,3.1,0,0,1,218.7,94.7Zm18.1-69a4.94,4.94,0,0,1-3.4-1.4,4.53,4.53,0,0,1-1.4-3.4,4.76,4.76,0,0,1,1.4-3.4,4.94,4.94,0,0,1,3.4-1.4,4.76,4.76,0,0,1,3.4,1.4,4.8,4.8,0,0,1-3.4,8.2Z"/><path class="cls-3" d="M277.5,84.8a24.62,24.62,0,0,1-11.2-2.6,20.9,20.9,0,0,1-8.1-7.5,21.42,21.42,0,0,1-3-11.5V37.9a3.4,3.4,0,1,1,6.8,0V62.8a16.11,16.11,0,0,0,2.3,8.7,14.57,14.57,0,0,0,5.8,5.5,16.77,16.77,0,0,0,7.6,1.9,15.69,15.69,0,0,0,7.7-1.9,15.29,15.29,0,0,0,5.8-5.5,16.08,16.08,0,0,0,2.2-8.7V37.9a3.4,3.4,0,1,1,6.8,0V63a21.42,21.42,0,0,1-3,11.5,20.18,20.18,0,0,1-8.1,7.5A24.25,24.25,0,0,1,277.5,84.8Z"/><path class="cls-3" d="M318.1,83.5a3.37,3.37,0,0,1-3.4-3.4V55a21.78,21.78,0,0,1,3-11.6,20.9,20.9,0,0,1,8.1-7.5A23.4,23.4,0,0,1,337,33.3a24.74,24.74,0,0,1,11.3,2.6,20.9,20.9,0,0,1,8.1,7.5,21.54,21.54,0,0,1,3,11.6V80.1a3.4,3.4,0,1,1-6.8,0V55.3a17,17,0,0,0-2.2-8.7,15.29,15.29,0,0,0-5.8-5.5,16.46,16.46,0,0,0-7.6-1.9,15.59,15.59,0,0,0-7.6,1.9,13.71,13.71,0,0,0-5.7,5.5,16.2,16.2,0,0,0-2.2,8.8V80.3A3.4,3.4,0,0,1,318.1,83.5Z"/><path class="cls-3" d="M437,25.7a4.94,4.94,0,0,1-3.4-1.4,4.53,4.53,0,0,1-1.4-3.4,4.76,4.76,0,0,1,1.4-3.4,4.94,4.94,0,0,1,3.4-1.4,4.76,4.76,0,0,1,3.4,1.4,4.8,4.8,0,0,1-3.4,8.2Zm-3.3,54.5V37.9a3.4,3.4,0,1,1,6.8,0V80.2a3.37,3.37,0,0,1-3.4,3.4A3.43,3.43,0,0,1,433.7,80.2Z"/><path class="cls-3" d="M57.5,50.4H50.7V60.7A27,27,0,0,0,37.2,69a31.15,31.15,0,0,0-3.6,5.1,20.62,20.62,0,0,0-1.2,2.6,26.43,26.43,0,0,1-.9-52.8V21.1a3.45,3.45,0,0,1,1-2.3l1.6-1.6h-.4a33.16,33.16,0,0,0-3.4,66.2,45.67,45.67,0,0,0-.8,9.2c.1,4.9,1.4,9,3.8,11.8a12.91,12.91,0,0,0,9.8,4.6c7.7.1,14-7.1,14.2-16.1C57.5,87.6,57.5,63.4,57.5,50.4ZM50.7,92.8c-.1,5.2-3.4,9.5-7.3,9.4-2.5,0-6.8-1.4-7-9.8a34.21,34.21,0,0,1,.9-9,21.28,21.28,0,0,1,.8-2.7,20.46,20.46,0,0,1,2.5-4.9,12.82,12.82,0,0,1,1.7-2.2,20.6,20.6,0,0,1,8.5-5.7C50.7,78.7,50.7,89.5,50.7,92.8Z"/><path class="cls-3" d="M52.4,22.2a6.2,6.2,0,1,1-6.2,6.2A6.23,6.23,0,0,1,52.4,22.2Z"/><path class="cls-4" d="M72.4,18.7,54.8,1A3.38,3.38,0,0,0,50,1L34.3,16.9l-.2.1-1.6,1.6a3.45,3.45,0,0,0-1,2.3V47a3.37,3.37,0,0,0,3.4,3.4H70A3.37,3.37,0,0,0,73.4,47V21.1A3.25,3.25,0,0,0,72.4,18.7Zm-5.7,25H38.2V22.4l3.7-3.7L52.4,8.2,66.6,22.5V43.7Z"/><path class="cls-3" d="M415,51.1h0a3.31,3.31,0,0,0-2.4,1,3.49,3.49,0,0,0-1,2.4v1.3c0,2.3,0,7.3-.1,13.1a22,22,0,0,0-10.6,6.6,25.47,25.47,0,0,0-3,4.1,8.86,8.86,0,0,0-.8,1.7,20,20,0,0,1-13.6-6.5,20.44,20.44,0,0,1,15.3-34.5,18.41,18.41,0,0,1,4.1.5,3.54,3.54,0,0,0,2.5-.4,3.22,3.22,0,0,0,1.5-2.1,3.54,3.54,0,0,0-.4-2.5,3.22,3.22,0,0,0-2.1-1.5,33.09,33.09,0,0,0-5.5-.7,27.21,27.21,0,0,0-4,54.2,29.84,29.84,0,0,0-.5,6.8,15.66,15.66,0,0,0,3.2,9.9,11.23,11.23,0,0,0,8.3,4h.2a10.89,10.89,0,0,0,8.2-3.9A14.66,14.66,0,0,0,418,95c.1-5.3.3-34.6.4-40.4v-.1A3.44,3.44,0,0,0,415,51.1Zm-3.6,24.8c0,7.4-.1,16.3-.2,18.9-.1,3.8-2.4,6.9-5.2,6.9-2.2,0-4.8-1.3-4.9-7.2a25.88,25.88,0,0,1,.8-7l.6-2.1a21.46,21.46,0,0,1,1.9-3.7,10.92,10.92,0,0,1,1.3-1.7A18.1,18.1,0,0,1,411.4,75.9Z"/><path class="cls-3" d="M496,51.1h0a3.41,3.41,0,0,0-3.4,3.4v1.3c0,2.3,0,7.3-.1,13.1a22,22,0,0,0-10.6,6.6,25.47,25.47,0,0,0-3,4.1,8.86,8.86,0,0,0-.8,1.7,20,20,0,0,1-13.6-6.5,20.46,20.46,0,0,1,15.3-34.5,18.41,18.41,0,0,1,4.1.5,3.54,3.54,0,0,0,2.5-.4,3.22,3.22,0,0,0,1.5-2.1,3.54,3.54,0,0,0-.4-2.5,3.22,3.22,0,0,0-2.1-1.5,33.09,33.09,0,0,0-5.5-.7,27.15,27.15,0,0,0-27.8,26.5A27.42,27.42,0,0,0,476,87.7a29.84,29.84,0,0,0-.5,6.8,15.66,15.66,0,0,0,3.2,9.9,11.23,11.23,0,0,0,8.3,4h.2a10.89,10.89,0,0,0,8.2-3.9,14.66,14.66,0,0,0,3.7-9.6c.1-5,.3-32,.4-40.1v-.4A3.66,3.66,0,0,0,496,51.1Zm-3.6,24.8c-.1,10.5-.1,16.8-.2,18.9-.1,3.7-2.4,6.9-5.1,6.9H487c-2.2,0-4.8-1.3-4.9-7.2a25.88,25.88,0,0,1,.8-7l.6-2.1a21.46,21.46,0,0,1,1.9-3.7,10.92,10.92,0,0,1,1.3-1.7A17.06,17.06,0,0,1,492.4,75.9Z"/></g></svg>