<svg width="177" height="30" viewBox="0 0 177 30" fill="none" xmlns="http://www.w3.org/2000/svg">
<g clip-path="url(#clip0)">
<path d="M34.5925 6.47754V6.48978C34.6046 6.50203 34.6286 6.50203 34.6407 6.50203C34.6286 6.48978 34.6046 6.47754 34.5925 6.47754ZM34.5925 6.47754V6.48978C34.6046 6.50203 34.6286 6.50203 34.6407 6.50203C34.6286 6.48978 34.6046 6.47754 34.5925 6.47754Z" fill="#F9F8F8"/>
<path d="M34.6407 6.48933C34.6286 6.47709 34.6046 6.47709 34.5925 6.47709V6.46484C34.6046 6.47709 34.6286 6.48933 34.6407 6.48933Z" fill="#F9F8F8"/>
<path d="M34.8101 6.26953V6.28178C34.8221 6.29402 34.8462 6.29402 34.8582 6.29402C34.8341 6.28178 34.8221 6.26953 34.8101 6.26953ZM34.8101 6.26953V6.28178C34.8221 6.29402 34.8462 6.29402 34.8582 6.29402C34.8341 6.28178 34.8221 6.26953 34.8101 6.26953Z" fill="#F9F8F8"/>
<path d="M34.8582 6.29402C34.8462 6.28178 34.8221 6.28178 34.8101 6.28178V6.26953C34.8221 6.26953 34.8341 6.28178 34.8582 6.29402Z" fill="#F9F8F8"/>
<path d="M22.8441 22.984C22.3365 22.984 21.9255 22.5677 21.9255 22.0534V13.3473C21.9255 12.1473 22.264 11.2167 22.9287 10.531C23.5935 9.85751 24.5242 9.51465 25.7087 9.51465H27.2075C27.6426 9.51465 28.0052 9.86975 28.0052 10.3228C28.0052 10.7636 27.6547 11.131 27.2075 11.131H26.0713C25.3099 11.131 24.7297 11.3391 24.3308 11.7677C23.932 12.1963 23.7386 12.784 23.7386 13.5677V22.0779C23.7627 22.5677 23.3518 22.984 22.8441 22.984Z" fill="#F9F8F8"/>
<path d="M36.5629 23.3265C35.2212 23.3265 34.0367 23.0082 32.9851 22.3837C31.9457 21.7592 31.1238 20.9143 30.5315 19.8367C29.9393 18.7592 29.6492 17.5592 29.6492 16.249C29.6492 14.9265 29.9393 13.7265 30.5315 12.649C31.1238 11.5714 31.9457 10.7265 32.9851 10.102C34.0246 9.47755 35.2212 9.15918 36.5629 9.15918C37.9045 9.15918 39.089 9.47755 40.1285 10.102C41.168 10.7265 41.9778 11.5714 42.5821 12.6367C43.1865 13.702 43.4766 14.902 43.4766 16.249C43.4766 17.5714 43.1744 18.7714 42.5821 19.8367C41.9778 20.9143 41.168 21.7592 40.1285 22.3837C39.089 23.0204 37.9045 23.3265 36.5629 23.3265ZM36.5629 21.7224C37.554 21.7224 38.4363 21.4775 39.1978 21C39.9593 20.5102 40.5636 19.8612 40.9867 19.0286C41.4097 18.1959 41.6273 17.2775 41.6273 16.249C41.6273 15.2326 41.4097 14.302 40.9867 13.4694C40.5636 12.6367 39.9593 11.9878 39.1978 11.498C38.4363 11.0082 37.554 10.7755 36.5629 10.7755C35.5596 10.7755 34.6773 11.0204 33.9158 11.498C33.1544 11.9878 32.5621 12.6367 32.1391 13.4694C31.716 14.302 31.4985 15.2204 31.4985 16.249C31.4985 17.2653 31.716 18.1959 32.1391 19.0286C32.5621 19.8612 33.1544 20.5102 33.9158 21C34.6773 21.4775 35.5596 21.7224 36.5629 21.7224Z" fill="#F9F8F8"/>
<path d="M47.453 22.984C47.0179 22.984 46.6553 22.6289 46.6553 22.1758V9.77172C46.6553 8.87784 46.8124 8.03295 47.1267 7.26152C47.4409 6.49009 47.8881 5.80437 48.4562 5.22886C49.0243 4.65335 49.7133 4.20029 50.511 3.86968C51.3087 3.53907 52.2031 3.37988 53.1701 3.37988C54.2942 3.37988 55.3336 3.60029 56.2643 4.02886C57.195 4.45743 57.9444 5.06968 58.5125 5.85335C59.0806 6.63703 59.3586 7.54315 59.3586 8.58397C59.3586 9.18397 59.2377 9.75948 59.0081 10.3105C58.7784 10.8615 58.4158 11.3636 57.9202 11.8044C57.4368 12.2452 56.7962 12.5758 56.0105 12.8085C56.8929 13.0778 57.6302 13.4574 58.2103 13.9717C58.7905 14.486 59.2377 15.0493 59.552 15.6738C59.8662 16.2983 60.0234 16.935 60.0234 17.584C60.0234 18.5146 59.7937 19.3962 59.3344 20.2289C58.8751 21.0615 58.2345 21.7227 57.4005 22.2248C56.5786 22.7268 55.6237 22.9717 54.548 22.9717H52.6987C52.2636 22.9717 51.901 22.6166 51.901 22.1636C51.901 21.7227 52.2515 21.3554 52.6987 21.3554H54.2217C55.0436 21.3554 55.7446 21.1717 56.3369 20.8166C56.9291 20.4615 57.3763 19.984 57.6906 19.4207C58.0048 18.8452 58.162 18.2329 58.162 17.584C58.162 16.9105 57.9807 16.286 57.6302 15.7105C57.2675 15.135 56.7478 14.6574 56.0709 14.3023C55.382 13.9472 54.548 13.7513 53.5811 13.7391H52.88V12.1227H53.4844C54.3304 12.1227 55.0677 11.9758 55.6721 11.6697C56.2764 11.3758 56.7478 10.9595 57.0621 10.4574C57.3884 9.94315 57.5455 9.35539 57.5455 8.68193C57.5455 7.9105 57.3401 7.23703 56.9412 6.68601C56.5423 6.13499 56.0105 5.70641 55.3457 5.40029C54.681 5.10641 53.9678 4.94723 53.1822 4.94723C52.2998 4.94723 51.49 5.15539 50.7769 5.55948C50.0638 5.96356 49.4957 6.53907 49.0847 7.27376C48.6617 8.00846 48.4562 8.89009 48.4562 9.91866V22.1636C48.4562 22.6044 48.1057 22.9717 47.6585 22.9717H47.453V22.984Z" fill="#F9F8F8"/>
<path d="M59.3706 26.0571C59.3827 25.6163 59.7332 25.2612 60.1683 25.2612H61.0869C61.8726 25.2612 62.4528 25.053 62.8395 24.6245C63.2263 24.1959 63.4076 23.6081 63.4076 22.8245V10.4326C63.4076 9.91833 63.8186 9.502 64.3262 9.502C64.8339 9.502 65.2448 9.91833 65.2448 10.4326V23.0326C65.2448 24.2081 64.9064 25.151 64.2416 25.8367C63.5768 26.5224 62.6461 26.8653 61.4616 26.8653H60.1804C59.7211 26.8653 59.3706 26.4979 59.3706 26.0571ZM64.29 7.07751C63.9394 7.07751 63.6373 6.94282 63.3714 6.68568C63.1054 6.41629 62.9846 6.11017 62.9846 5.75507C62.9846 5.38772 63.1175 5.06935 63.3714 4.81221C63.6373 4.55507 63.9394 4.43262 64.29 4.43262C64.6526 4.43262 64.9668 4.56731 65.2206 4.82445C65.4745 5.09384 65.5953 5.39996 65.5953 5.75507C65.5953 6.11017 65.4624 6.41629 65.2086 6.68568C64.9426 6.94282 64.6405 7.07751 64.29 7.07751Z" fill="#F9F8F8"/>
<path d="M75.3254 23.3264C74.2134 23.3264 73.1981 23.0816 72.2795 22.604C71.3609 22.1142 70.6236 21.4285 70.0797 20.5346C69.5358 19.6407 69.2578 18.5754 69.2578 17.3632V10.4326C69.2578 9.91828 69.6688 9.50195 70.1764 9.50195C70.6841 9.50195 71.095 9.91828 71.095 10.4326V17.2775C71.095 18.2081 71.3005 19.0162 71.7114 19.6775C72.1224 20.3509 72.6421 20.853 73.2948 21.1958C73.9354 21.5387 74.6244 21.7101 75.3496 21.7101C76.099 21.7101 76.8 21.5387 77.4527 21.1836C78.1054 20.8285 78.6251 20.3264 79.0361 19.6652C79.435 19.004 79.6404 18.2081 79.6404 17.2775V10.4326C79.6404 9.91828 80.0514 9.50195 80.559 9.50195C81.0667 9.50195 81.4776 9.91828 81.4776 10.4326V17.3509C81.4776 18.5632 81.1996 19.6285 80.6557 20.5224C80.1118 21.4162 79.3745 22.1142 78.468 22.5918C77.5011 23.0815 76.4737 23.3264 75.3254 23.3264Z" fill="#F9F8F8"/>
<path d="M86.3607 22.9841C85.8531 22.9841 85.4421 22.5678 85.4421 22.0535V15.1351C85.4421 13.8984 85.7201 12.8453 86.264 11.9515C86.808 11.0576 87.5453 10.3719 88.4639 9.89432C89.3825 9.40453 90.3977 9.17188 91.5097 9.17188C92.6459 9.17188 93.6612 9.41677 94.5798 9.89432C95.4984 10.3841 96.2236 11.0698 96.7675 11.9515C97.3114 12.8453 97.5894 13.8984 97.5894 15.1351V22.0535C97.5894 22.5678 97.1785 22.9841 96.6708 22.9841C96.1632 22.9841 95.7522 22.5678 95.7522 22.0535V15.2086C95.7522 14.278 95.5468 13.4821 95.1479 12.8209C94.749 12.1596 94.2172 11.6576 93.5645 11.3025C92.9481 10.9596 92.247 10.776 91.4977 10.776C90.7724 10.776 90.0835 10.9474 89.4429 11.2902C88.8023 11.6331 88.2825 12.1351 87.8837 12.7964C87.4848 13.4576 87.2793 14.2658 87.2793 15.2086V22.0535C87.2672 22.5678 86.8563 22.9841 86.3607 22.9841Z" fill="#F9F8F8"/>
<path d="M118.633 7.07752C118.282 7.07752 117.98 6.94282 117.714 6.68568C117.448 6.41629 117.327 6.11017 117.327 5.75507C117.327 5.38772 117.46 5.06935 117.714 4.81221C117.98 4.55507 118.282 4.43262 118.633 4.43262C118.995 4.43262 119.309 4.56731 119.563 4.82445C119.817 5.09384 119.938 5.39996 119.938 5.75507C119.938 6.11017 119.805 6.41629 119.551 6.68568C119.285 6.94282 118.983 7.07752 118.633 7.07752ZM117.726 22.0653V10.4326C117.726 9.91833 118.137 9.50201 118.645 9.50201C119.152 9.50201 119.563 9.91833 119.563 10.4326V22.0653C119.563 22.5796 119.152 22.9959 118.645 22.9959C118.125 22.9836 117.726 22.5673 117.726 22.0653Z" fill="#F9F8F8"/>
<path d="M150.07 22.9836C149.418 22.9836 148.97 22.3223 149.2 21.7101L155.086 6.09786C155.352 5.41214 155.679 4.9101 156.09 4.60398C156.501 4.29786 156.984 4.13867 157.54 4.13867C158.108 4.13867 158.604 4.28561 159.027 4.59173C159.45 4.88561 159.776 5.38765 160.018 6.07337L165.953 21.7101C166.182 22.3223 165.735 22.9836 165.094 22.9836H165.022C164.635 22.9836 164.297 22.7387 164.152 22.3836L162.556 18.1223H152.536L150.941 22.3836C150.796 22.7509 150.457 22.9836 150.07 22.9836ZM153.116 16.4325H161.988L158.434 6.73459C158.326 6.45296 158.217 6.23255 158.084 6.07337C157.951 5.91418 157.782 5.84071 157.576 5.84071C157.347 5.84071 157.177 5.91418 157.069 6.07337C156.96 6.23255 156.839 6.45296 156.718 6.73459L153.116 16.4325Z" fill="#F9F8F8"/>
<path d="M167.875 22.139C167.875 21.6737 168.249 21.2941 168.709 21.2941H171.501V6.18394H168.709C168.249 6.18394 167.875 5.80434 167.875 5.33904C167.875 4.87373 168.249 4.49414 168.709 4.49414H176.166C176.625 4.49414 177 4.87373 177 5.33904C177 5.80434 176.625 6.18394 176.166 6.18394H173.374V21.2941H176.166C176.625 21.2941 177 21.6737 177 22.139C177 22.6043 176.625 22.9839 176.166 22.9839H168.709C168.249 22.9839 167.875 22.6043 167.875 22.139Z" fill="#F9F8F8"/>
<path d="M9.50024 8.52246V8.53471C9.52438 8.53471 9.53645 8.54695 9.56059 8.54695C9.53645 8.54695 9.52438 8.53471 9.50024 8.52246ZM9.50024 8.52246V8.53471C9.52438 8.53471 9.53645 8.54695 9.56059 8.54695C9.53645 8.54695 9.52438 8.53471 9.50024 8.52246Z" fill="#1D1D1B"/>
<path d="M9.56059 8.55965C9.53645 8.55965 9.52438 8.5474 9.50024 8.5474V8.53516C9.52438 8.53516 9.53645 8.5474 9.56059 8.55965Z" fill="#1D1D1B"/>
<path d="M15.6042 13.8739H13.7549V16.7148C12.9693 16.9107 11.4222 17.4739 10.0926 19.0046C9.71792 19.4331 9.40367 19.8984 9.12567 20.4005C9.0048 20.6331 8.88393 20.8658 8.78724 21.1107C4.88318 20.976 1.78894 17.6943 1.84938 13.727C1.89773 9.91884 4.85901 6.82088 8.5455 6.57598L8.55759 5.79231C8.55759 5.55965 8.65428 5.327 8.8235 5.15557L9.27071 4.70251C9.23445 4.70251 9.21028 4.70251 9.17402 4.70251C4.19423 4.6168 0.0726101 8.65761 8.898e-05 13.7025C-0.0724322 18.5148 3.56571 22.5311 8.21915 22.9474C8.06202 23.7433 7.9895 24.5882 8.01368 25.4821C8.04994 26.829 8.40046 27.9556 9.05315 28.7392C9.71792 29.5352 10.6607 29.9882 11.7243 30.0005C13.8154 30.0372 15.5317 28.0413 15.568 25.5556C15.6163 24.1229 15.6163 17.4617 15.6042 13.8739ZM13.7549 25.5311C13.7308 26.9515 12.8242 28.1515 11.7727 28.127C11.0837 28.1148 9.9234 27.7474 9.87505 25.4331C9.85088 24.478 9.94757 23.6576 10.1168 22.9474C10.1772 22.678 10.2497 22.4454 10.3344 22.2127C10.5157 21.6984 10.7453 21.2576 11.0112 20.8658C11.1563 20.6454 11.3134 20.4372 11.4705 20.2658C12.2562 19.3597 13.1748 18.9066 13.767 18.6862C13.767 21.6617 13.7549 24.6372 13.7549 25.5311Z" fill="#F9F8F8"/>
<path d="M14.2383 6.09766C15.169 6.09766 15.9305 6.86909 15.9305 7.81194C15.9305 8.7548 15.169 9.52623 14.2383 9.52623C13.3076 9.52623 12.5461 8.7548 12.5461 7.81194C12.5461 6.86909 13.3076 6.09766 14.2383 6.09766Z" fill="#F9F8F8"/>
<path d="M19.6531 5.1551L14.8788 0.269388C14.7096 0.0979592 14.4679 0 14.2261 0C13.9844 0 13.7426 0.0979592 13.5734 0.269388L9.30676 4.64082L9.25841 4.6898L8.82329 5.14286C8.65407 5.31429 8.55738 5.54694 8.55738 5.77959L8.54529 6.56327L8.5332 7.2V12.9306C8.5332 13.4449 8.94416 13.8612 9.4518 13.8612H19.0004C19.5081 13.8612 19.919 13.4449 19.919 12.9306V5.80408C19.9311 5.57143 19.8344 5.32653 19.6531 5.1551ZM18.0939 12.0245H10.3704V7.22449L10.3825 6.73469L10.3946 6.18367L11.3857 5.16735L14.2382 2.25306L18.0939 6.19592V12.0245Z" fill="#E8615B"/>
<path d="M112.674 14.057C112.662 14.057 112.662 14.057 112.662 14.057H112.649C112.408 14.057 112.178 14.155 112.009 14.3264C111.84 14.4978 111.743 14.7305 111.743 14.9754C111.743 14.9876 111.743 15.1101 111.743 15.3305C111.743 15.955 111.731 17.3509 111.719 18.9427C111.03 19.1264 109.857 19.604 108.83 20.7672C108.528 21.1101 108.25 21.4897 108.02 21.906C107.936 22.0529 107.863 22.2121 107.791 22.3713C106.376 22.2856 105.071 21.6489 104.092 20.5958C103.089 19.5182 102.557 18.0978 102.581 16.6162C102.654 13.506 105.204 11.0448 108.262 11.106C108.637 11.1182 109.023 11.1672 109.386 11.2407C109.628 11.2897 109.87 11.2529 110.075 11.1182C110.28 10.9836 110.426 10.7876 110.474 10.5427C110.522 10.2978 110.486 10.0529 110.353 9.84478C110.22 9.63661 110.027 9.48967 109.785 9.44069C109.301 9.33049 108.806 9.26927 108.298 9.25702C104.225 9.15906 100.841 12.4407 100.756 16.5672C100.671 20.3999 103.5 23.6938 107.222 24.1591C107.114 24.7468 107.065 25.3836 107.077 26.0325C107.09 27.1468 107.392 28.0774 107.936 28.7509C108.492 29.4244 109.289 29.8162 110.184 29.8407C110.208 29.8407 110.232 29.8407 110.244 29.8407C111.078 29.8407 111.864 29.4611 112.468 28.7754C113.085 28.0774 113.435 27.1468 113.459 26.1427C113.496 24.6856 113.544 16.6284 113.556 15.0244V14.9876C113.568 14.4856 113.169 14.0693 112.674 14.057ZM111.695 20.8897C111.683 22.9223 111.658 25.3713 111.646 26.0938C111.622 27.1346 110.982 28.004 110.232 27.9795C109.64 27.9672 108.927 27.6121 108.903 25.9958C108.89 25.2978 108.963 24.6366 109.108 24.0611C109.156 23.8652 109.217 23.6693 109.277 23.4856C109.41 23.1182 109.592 22.7631 109.797 22.457C109.906 22.2978 110.027 22.1387 110.16 21.9917C110.667 21.4285 111.247 21.0856 111.695 20.8897Z" fill="#F9F8F8"/>
<path d="M134.66 14.0572H134.648C134.406 14.0572 134.176 14.1551 134.007 14.3266C133.838 14.498 133.741 14.7307 133.741 14.9756C133.741 14.9878 133.741 15.1102 133.741 15.3429C133.741 15.9796 133.729 17.3633 133.717 18.9429C133.028 19.1266 131.855 19.6041 130.828 20.7674C130.526 21.1102 130.248 21.4898 130.018 21.9062C129.934 22.0531 129.861 22.2123 129.789 22.3715C128.374 22.2858 127.069 21.649 126.09 20.596C125.087 19.5184 124.555 18.098 124.579 16.6164C124.615 15.1102 125.22 13.7143 126.296 12.6735C127.371 11.6327 128.773 11.0817 130.26 11.1062C130.635 11.1184 131.021 11.1674 131.384 11.2409C131.626 11.2898 131.868 11.2531 132.073 11.1184C132.279 10.9837 132.424 10.7878 132.472 10.5429C132.52 10.298 132.484 10.0531 132.351 9.84494C132.218 9.63678 132.025 9.48984 131.783 9.44086C131.299 9.33065 130.804 9.26943 130.296 9.25718C128.326 9.2082 126.465 9.9429 125.038 11.3266C123.612 12.7102 122.802 14.5715 122.754 16.5551C122.669 20.3878 125.498 23.6817 129.221 24.147C129.112 24.7347 129.063 25.3715 129.075 26.0204C129.088 27.1347 129.39 28.0653 129.934 28.7388C130.49 29.4123 131.287 29.8041 132.182 29.8286C132.206 29.8286 132.218 29.8286 132.242 29.8286C133.076 29.8286 133.862 29.449 134.466 28.7633C135.083 28.0653 135.433 27.1347 135.457 26.1307C135.494 24.747 135.542 17.3266 135.554 15.0858V14.9878C135.542 14.4858 135.143 14.0694 134.66 14.0572ZM133.681 20.8898C133.656 23.7674 133.644 25.5184 133.632 26.0939C133.608 27.1225 132.967 27.9796 132.242 27.9796H132.218C131.626 27.9674 130.913 27.6123 130.889 25.996C130.876 25.298 130.949 24.6368 131.094 24.0613C131.142 23.8653 131.203 23.6694 131.263 23.4858C131.396 23.1184 131.577 22.7633 131.783 22.4572C131.892 22.298 132.013 22.1388 132.146 21.9919C132.653 21.4286 133.233 21.0858 133.681 20.8898Z" fill="#F9F8F8"/>
</g>
<defs>
<clipPath id="clip0">
<rect width="177" height="30" fill="white"/>
</clipPath>
</defs>
</svg>
