<svg width="59" height="60" viewBox="0 0 59 60" fill="none" xmlns="http://www.w3.org/2000/svg">
    <circle cx="29.5" cy="30.1406" r="28.75" fill="#F9F8F8" stroke="#365DA7" stroke-width="1.5"/>
    <path d="M39.9993 43.974C41.102 43.974 41.9993 43.0766 41.9993 41.974V37.3073C41.9993 36.2046 41.102 35.3073 39.9993 35.3073C38.4394 35.3073 36.906 35.062 35.4394 34.578C35.0888 34.4673 34.7147 34.4538 34.3571 34.539C33.9994 34.6243 33.6716 34.805 33.4087 35.062L31.4887 36.982C28.1702 35.1804 25.4447 32.4559 23.642 29.138L25.546 27.222C26.0953 26.7126 26.2927 25.938 26.058 25.1926C25.575 23.7237 25.3301 22.1869 25.3327 20.6406C25.3327 19.538 24.4353 18.6406 23.3327 18.6406H18.666C17.5633 18.6406 16.666 19.538 16.666 20.6406C16.666 33.5073 27.1327 43.974 39.9993 43.974ZM18.666 19.974H23.3327C23.5095 19.974 23.6791 20.0442 23.8041 20.1692C23.9291 20.2942 23.9993 20.4638 23.9993 20.6406C23.9993 22.3433 24.266 24.0153 24.79 25.6006C24.8285 25.7157 24.833 25.8394 24.803 25.9569C24.7729 26.0744 24.7097 26.1808 24.6207 26.2633L22.0127 28.8846C24.1953 33.1886 27.4193 36.4126 31.7433 38.614L34.342 36.014C34.4307 35.9262 34.5416 35.8642 34.6627 35.8346C34.7839 35.805 34.9109 35.809 35.03 35.846C36.6247 36.374 38.2967 36.6406 39.9993 36.6406C40.366 36.6406 40.666 36.9406 40.666 37.3073V41.974C40.666 42.3406 40.366 42.6406 39.9993 42.6406C27.8687 42.6406 17.9993 32.7713 17.9993 20.6406C17.9993 20.4638 18.0696 20.2942 18.1946 20.1692C18.3196 20.0442 18.4892 19.974 18.666 19.974Z" fill="#E9615B"/>
</svg>
