<svg width="120" height="120" viewBox="0 0 120 120" fill="none" xmlns="http://www.w3.org/2000/svg">
<circle cx="60" cy="60" r="60" fill="#CFE7F0"/>
<path d="M60.2351 57.5688C56.2711 57.5458 43.3441 56.3398 43.4301 41.8258L43.4871 32.2128C43.5241 25.9898 47.8881 18.7488 60.0661 18.8208C76.1161 18.9168 76.5071 31.0278 76.4991 32.4088L76.4391 42.4098C76.4121 46.9968 74.7791 57.6548 60.2351 57.5688ZM60.0521 21.2498C46.6611 21.1698 45.9281 30.3798 45.9171 32.2268L45.8601 41.8398C45.7891 53.7648 55.9001 55.1128 60.2501 55.1388C71.5601 55.2058 73.9761 48.2458 74.0101 42.3958L74.0701 32.3938C74.0801 30.5468 73.4561 21.3298 60.0521 21.2498Z" fill="#365FA7"/>
<path d="M60.2675 12.9026C52.1745 12.8546 46.3435 18.6796 46.0995 18.9276C45.8705 19.1596 45.7455 19.4726 45.7495 19.7986C45.7545 20.1246 45.8895 20.4336 46.1245 20.6586C46.1445 20.6776 46.2105 20.7396 46.2975 20.8216C46.0055 20.7486 45.6915 20.7766 45.4185 20.9256C45.2325 21.0276 40.8575 23.4716 39.8275 28.2056C38.8045 32.8956 42.9105 39.2516 43.0855 39.5196C43.3125 39.8676 43.6955 40.0676 44.0955 40.0706C44.2125 40.0706 44.3305 40.0546 44.4465 40.0206C44.9615 39.8686 45.3155 39.3986 45.3185 38.8626C45.3485 33.8406 50.8675 25.3436 50.9235 25.2586C51.0125 25.1226 51.0695 24.9746 51.0985 24.8236C53.6445 26.7656 56.9895 29.0646 60.7515 30.9926C67.4055 34.4036 75.9705 37.9196 76.0555 37.9546C76.2015 38.0146 76.3555 38.0446 76.5095 38.0456C76.6955 38.0466 76.8805 38.0056 77.0505 37.9226C77.3625 37.7696 77.5935 37.4916 77.6865 37.1576C77.9325 36.2776 79.1595 31.8176 79.1675 30.4676C79.2265 20.3546 71.2785 12.9676 60.2675 12.9026Z" fill="#365FA7"/>
<path d="M68.0375 38.5835L66.4385 38.5745C65.7675 38.5705 65.2275 38.0235 65.2305 37.3525C65.2335 36.6815 65.7815 36.1415 66.4525 36.1445L68.0515 36.1535C68.7225 36.1575 69.2625 36.7045 69.2595 37.3755C69.2565 38.0465 68.7085 38.5875 68.0375 38.5835Z" fill="#365FA7"/>
<path d="M54.1734 38.5025L52.4424 38.4925C51.7714 38.4885 51.2314 37.9415 51.2344 37.2705C51.2374 36.5995 51.7854 36.0585 52.4564 36.0625L54.1874 36.0725C54.8584 36.0765 55.3994 36.6235 55.3954 37.2945C55.3914 37.9655 54.8444 38.5065 54.1734 38.5025Z" fill="#365FA7"/>
<path d="M59.7448 49.7908C55.3708 49.7648 52.5618 47.2548 52.4448 47.1488C51.9478 46.6968 51.9118 45.9288 52.3628 45.4328C52.8128 44.9378 53.5778 44.8998 54.0748 45.3478C54.0988 45.3688 56.3488 47.3408 59.7588 47.3618C63.4518 47.3838 65.5278 45.4748 65.5468 45.4558C66.0288 44.9888 66.7968 44.9998 67.2648 45.4828C67.7318 45.9648 67.7198 46.7338 67.2378 47.2008C67.1268 47.3078 64.4788 49.8188 59.7448 49.7908Z" fill="#365FA7"/>
<path d="M75.7128 58.2136L67.9208 58.1676C67.5398 58.1656 67.1758 58.3476 66.9438 58.6496C66.8448 58.7796 64.4548 61.8366 59.6898 61.8076C55.3208 61.7826 53.4368 58.7886 53.3628 58.6686C53.1448 58.3026 52.7518 58.0776 52.3258 58.0746L44.3428 58.0276C39.8658 58.0016 35.0558 60.0016 31.4768 63.3796C28.3838 66.2986 24.6858 71.6556 24.6328 80.6066L24.5078 101.677C24.5038 102.348 25.0618 102.895 25.7328 102.899L93.7518 103.303C94.4228 103.307 94.9698 102.766 94.9738 102.095L95.0928 82.1636C95.1848 66.5166 85.4138 58.2716 75.7128 58.2136ZM59.6748 64.2376C64.5098 64.2666 67.4308 61.7056 68.4648 60.6006L70.9938 60.6156C69.8038 62.5486 66.6488 66.1546 59.6638 66.1126C53.2658 66.0746 50.4748 62.5816 49.3708 60.4876L51.6918 60.5016C52.6258 61.6826 55.1488 64.2116 59.6748 64.2376ZM92.5508 100.866L26.9448 100.476L27.0628 80.6206C27.1458 66.6416 37.2088 60.4146 44.3288 60.4576L46.6928 60.4716C47.0428 61.3386 47.7228 62.7086 48.9268 64.0756C50.7048 66.0956 54.0098 68.5096 59.6508 68.5426C69.5668 68.6016 72.9958 62.3156 73.7368 60.6316L75.6988 60.6436C86.9188 60.7106 92.7258 71.5126 92.6628 82.1496L92.5508 100.866Z" fill="#365FA7"/>
<path d="M72.5 61.5C61.0015 73.153 51.3333 65.8493 47.5 60.3493C35.9 57.5507 27.3333 70.0005 25.5 76.4994V101.499H94.5L93.5 81.6523C93.5 64.1533 78.7659 55.1499 72.5 61.5Z" fill="#365FA7" stroke="#365FA7"/>
</svg>
